<svg width="122.187500" height="122.000000" viewBox="0 0 122.188 122" fill="none" xmlns="http://www.w3.org/2000/svg" xmlns:xlink="http://www.w3.org/1999/xlink">
	<desc>
			Created with Pixso.
	</desc>
	<defs/>
	<rect id="div" rx="5.000000" width="10.000000" height="10.000000" fill="#81818B" fill-opacity="0.200000"/>
	<rect id="div" x="16.000000" rx="5.000000" width="10.000000" height="10.000000" fill="#81818B" fill-opacity="0.200000"/>
	<rect id="div" x="32.000000" rx="5.000000" width="10.000000" height="10.000000" fill="#81818B" fill-opacity="0.200000"/>
	<rect id="div" x="48.000000" rx="5.000000" width="10.000000" height="10.000000" fill="#81818B" fill-opacity="0.200000"/>
	<rect id="div" x="64.000000" rx="5.000000" width="10.000000" height="10.000000" fill="#81818B" fill-opacity="0.200000"/>
	<rect id="div" x="80.000000" rx="5.000000" width="10.000000" height="10.000000" fill="#81818B" fill-opacity="0.200000"/>
	<rect id="div" x="96.000000" rx="5.000000" width="10.000000" height="10.000000" fill="#81818B" fill-opacity="0.200000"/>
	<rect id="div" x="112.000000" rx="5.000000" width="10.000000" height="10.000000" fill="#81818B" fill-opacity="0.200000"/>
	<rect id="div" y="16.000000" rx="5.000000" width="10.000000" height="10.000000" fill="#81818B" fill-opacity="0.200000"/>
	<rect id="div" x="16.000000" y="16.000000" rx="5.000000" width="10.000000" height="10.000000" fill="#81818B" fill-opacity="0.200000"/>
	<rect id="div" x="32.000000" y="16.000000" rx="5.000000" width="10.000000" height="10.000000" fill="#81818B" fill-opacity="0.200000"/>
	<rect id="div" x="48.000000" y="16.000000" rx="5.000000" width="10.000000" height="10.000000" fill="#81818B" fill-opacity="0.200000"/>
	<rect id="div" x="64.000000" y="16.000000" rx="5.000000" width="10.000000" height="10.000000" fill="#81818B" fill-opacity="0.200000"/>
	<rect id="div" x="80.000000" y="16.000000" rx="5.000000" width="10.000000" height="10.000000" fill="#81818B" fill-opacity="0.200000"/>
	<rect id="div" x="96.000000" y="16.000000" rx="5.000000" width="10.000000" height="10.000000" fill="#81818B" fill-opacity="0.200000"/>
	<rect id="div" x="112.000000" y="16.000000" rx="5.000000" width="10.000000" height="10.000000" fill="#81818B" fill-opacity="0.200000"/>
	<rect id="div" y="32.000000" rx="5.000000" width="10.000000" height="10.000000" fill="#81818B" fill-opacity="0.200000"/>
	<rect id="div" x="16.000000" y="32.000000" rx="5.000000" width="10.000000" height="10.000000" fill="#81818B" fill-opacity="0.200000"/>
	<rect id="div" x="32.000000" y="32.000000" rx="5.000000" width="10.000000" height="10.000000" fill="#81818B" fill-opacity="0.200000"/>
	<rect id="div" x="48.000000" y="32.000000" rx="5.000000" width="10.000000" height="10.000000" fill="#81818B" fill-opacity="0.200000"/>
	<rect id="div" x="64.000000" y="32.000000" rx="5.000000" width="10.000000" height="10.000000" fill="#81818B" fill-opacity="0.200000"/>
	<rect id="div" x="80.000000" y="32.000000" rx="5.000000" width="10.000000" height="10.000000" fill="#81818B" fill-opacity="0.200000"/>
	<rect id="div" x="96.000000" y="32.000000" rx="5.000000" width="10.000000" height="10.000000" fill="#81818B" fill-opacity="0.200000"/>
	<rect id="div" x="112.000000" y="32.000000" rx="5.000000" width="10.000000" height="10.000000" fill="#81818B" fill-opacity="0.200000"/>
	<rect id="div" y="48.000000" rx="5.000000" width="10.000000" height="10.000000" fill="#81818B" fill-opacity="0.200000"/>
	<rect id="div" x="16.000000" y="48.000000" rx="5.000000" width="10.000000" height="10.000000" fill="#81818B" fill-opacity="0.200000"/>
	<rect id="div" x="32.000000" y="48.000000" rx="5.000000" width="10.000000" height="10.000000" fill="#81818B" fill-opacity="0.200000"/>
	<rect id="div" x="48.000000" y="48.000000" rx="5.000000" width="10.000000" height="10.000000" fill="#81818B" fill-opacity="0.200000"/>
	<rect id="div" x="64.000000" y="48.000000" rx="5.000000" width="10.000000" height="10.000000" fill="#81818B" fill-opacity="0.200000"/>
	<rect id="div" x="80.000000" y="48.000000" rx="5.000000" width="10.000000" height="10.000000" fill="#81818B" fill-opacity="0.200000"/>
	<rect id="div" x="96.000000" y="48.000000" rx="5.000000" width="10.000000" height="10.000000" fill="#81818B" fill-opacity="0.200000"/>
	<rect id="div" x="112.000000" y="48.000000" rx="5.000000" width="10.000000" height="10.000000" fill="#81818B" fill-opacity="0.200000"/>
	<rect id="div" y="64.000000" rx="5.000000" width="10.000000" height="10.000000" fill="#81818B" fill-opacity="0.200000"/>
	<rect id="div" x="16.000000" y="64.000000" rx="5.000000" width="10.000000" height="10.000000" fill="#81818B" fill-opacity="0.200000"/>
	<rect id="div" x="32.000000" y="64.000000" rx="5.000000" width="10.000000" height="10.000000" fill="#81818B" fill-opacity="0.200000"/>
	<rect id="div" x="48.000000" y="64.000000" rx="5.000000" width="10.000000" height="10.000000" fill="#81818B" fill-opacity="0.200000"/>
	<rect id="div" x="64.000000" y="64.000000" rx="5.000000" width="10.000000" height="10.000000" fill="#81818B" fill-opacity="0.200000"/>
	<rect id="div" x="80.000000" y="64.000000" rx="5.000000" width="10.000000" height="10.000000" fill="#81818B" fill-opacity="0.200000"/>
	<rect id="div" x="96.000000" y="64.000000" rx="5.000000" width="10.000000" height="10.000000" fill="#81818B" fill-opacity="0.200000"/>
	<rect id="div" x="112.000000" y="64.000000" rx="5.000000" width="10.000000" height="10.000000" fill="#81818B" fill-opacity="0.200000"/>
	<rect id="div" y="80.000000" rx="5.000000" width="10.000000" height="10.000000" fill="#81818B" fill-opacity="0.200000"/>
	<rect id="div" x="16.000000" y="80.000000" rx="5.000000" width="10.000000" height="10.000000" fill="#81818B" fill-opacity="0.200000"/>
	<rect id="div" x="32.000000" y="80.000000" rx="5.000000" width="10.000000" height="10.000000" fill="#81818B" fill-opacity="0.200000"/>
	<rect id="div" x="48.000000" y="80.000000" rx="5.000000" width="10.000000" height="10.000000" fill="#81818B" fill-opacity="0.200000"/>
	<rect id="div" x="64.000000" y="80.000000" rx="5.000000" width="10.000000" height="10.000000" fill="#81818B" fill-opacity="0.200000"/>
	<rect id="div" x="80.000000" y="80.000000" rx="5.000000" width="10.000000" height="10.000000" fill="#81818B" fill-opacity="0.200000"/>
	<rect id="div" x="96.000000" y="80.000000" rx="5.000000" width="10.000000" height="10.000000" fill="#81818B" fill-opacity="0.200000"/>
	<rect id="div" x="112.187500" y="84.562500" rx="5.000000" width="10.000000" height="10.000000" fill="#81818B" fill-opacity="0.200000"/>
	<rect id="div" y="96.000000" rx="5.000000" width="10.000000" height="10.000000" fill="#81818B" fill-opacity="0.200000"/>
	<rect id="div" x="16.000000" y="96.000000" rx="5.000000" width="10.000000" height="10.000000" fill="#81818B" fill-opacity="0.200000"/>
	<rect id="div" x="32.000000" y="96.000000" rx="5.000000" width="10.000000" height="10.000000" fill="#81818B" fill-opacity="0.200000"/>
	<rect id="div" x="48.000000" y="96.000000" rx="5.000000" width="10.000000" height="10.000000" fill="#81818B" fill-opacity="0.200000"/>
	<rect id="div" x="64.000000" y="96.000000" rx="5.000000" width="10.000000" height="10.000000" fill="#81818B" fill-opacity="0.200000"/>
	<rect id="div" x="80.000000" y="96.000000" rx="5.000000" width="10.000000" height="10.000000" fill="#81818B" fill-opacity="0.200000"/>
	<rect id="div" x="96.000000" y="96.000000" rx="5.000000" width="10.000000" height="10.000000" fill="#81818B" fill-opacity="0.200000"/>
	<rect id="div" x="112.000000" y="96.000000" rx="5.000000" width="10.000000" height="10.000000" fill="#81818B" fill-opacity="0.200000"/>
	<rect id="div" y="112.000000" rx="5.000000" width="10.000000" height="10.000000" fill="#81818B" fill-opacity="0.200000"/>
	<rect id="div" x="16.000000" y="112.000000" rx="5.000000" width="10.000000" height="10.000000" fill="#81818B" fill-opacity="0.200000"/>
	<rect id="div" x="32.000000" y="112.000000" rx="5.000000" width="10.000000" height="10.000000" fill="#81818B" fill-opacity="0.200000"/>
	<rect id="div" x="48.000000" y="112.000000" rx="5.000000" width="10.000000" height="10.000000" fill="#81818B" fill-opacity="0.200000"/>
	<rect id="div" x="64.000000" y="112.000000" rx="5.000000" width="10.000000" height="10.000000" fill="#81818B" fill-opacity="0.200000"/>
	<rect id="div" x="80.000000" y="112.000000" rx="5.000000" width="10.000000" height="10.000000" fill="#81818B" fill-opacity="0.200000"/>
	<rect id="div" x="96.000000" y="112.000000" rx="5.000000" width="10.000000" height="10.000000" fill="#81818B" fill-opacity="0.200000"/>
	<rect id="div" x="112.000000" y="112.000000" rx="5.000000" width="10.000000" height="10.000000" fill="#81818B" fill-opacity="0.200000"/>
</svg>
