<svg width="76.000000" height="76.000000" viewBox="0 0 76 76" fill="none" xmlns="http://www.w3.org/2000/svg" xmlns:xlink="http://www.w3.org/1999/xlink">
	<desc>
			Created with Pixso.
	</desc>
	<defs/>
	<g opacity="0.060000">
		<path id="Vector" d="M54.9787 0L21.0213 0C9.41156 0 0 9.4115 0 21.0212L0 54.9788C0 66.5885 9.41156 76 21.0213 76L54.9787 76C66.5884 76 76 66.5885 76 54.9788L76 21.0212C76 9.4115 66.5884 0 54.9787 0Z" fill="#F6CA4F" fill-opacity="1.000000" fill-rule="nonzero"/>
	</g>
	<path id="Vector" d="M38.0001 63.8788C52.2925 63.8788 63.8788 52.2925 63.8788 38.0001C63.8788 23.7076 52.2925 12.1213 38.0001 12.1213C23.7076 12.1213 12.1213 23.7076 12.1213 38.0001C12.1213 52.2925 23.7076 63.8788 38.0001 63.8788Z" fill="#FF6D35" fill-opacity="1.000000" fill-rule="nonzero"/>
	<path id="Vector" d="M28.4495 49.6729C26.1149 49.6729 24.2048 47.7628 24.2048 45.4282L24.2048 30.5718C24.2048 28.2373 26.1149 26.3271 28.4495 26.3271L47.5505 26.3271C49.8851 26.3271 51.7952 28.2373 51.7952 30.5718L51.7952 45.4282C51.7952 47.7628 49.8851 49.6729 47.5505 49.6729L28.4495 49.6729Z" stroke="#FFFFFF" stroke-opacity="1.000000" stroke-width="2.000000" stroke-linejoin="round"/>
	<path id="Vector" d="M24.2048 31.6331L38 40.1224L51.7952 31.6331" stroke="#FFFFFF" stroke-opacity="1.000000" stroke-width="2.000000" stroke-linejoin="round" stroke-linecap="round"/>
</svg>
