<svg width="136.842865" height="32.513794" viewBox="0 0 136.843 32.5138" fill="none" xmlns="http://www.w3.org/2000/svg" xmlns:xlink="http://www.w3.org/1999/xlink">
	<desc>
			Created with Pixso.
	</desc>
	<defs/>
	<path id="Vector" d="M50.4534 12.1256C50.1068 11.487 49.605 11.0035 48.9482 10.6751C48.3097 10.3285 47.5525 10.1552 46.6768 10.1552C45.1625 10.1552 43.9493 10.6569 43.037 11.6603C42.1248 12.6455 41.6687 13.9683 41.6687 15.6285C41.6687 17.3982 42.1431 18.7848 43.0918 19.7883C44.0588 20.7735 45.3814 21.2661 47.0599 21.2661C48.2093 21.2661 49.1763 20.9742 49.9608 20.3903C50.7636 19.8065 51.3474 18.9673 51.7123 17.8726L45.7737 17.8726L45.7737 14.4244L55.9541 14.4244L55.9541 18.7757C55.6075 19.9433 55.0145 21.0289 54.1753 22.0323C53.3543 23.0357 52.3052 23.8477 51.0281 24.468C49.751 25.0882 48.3097 25.3984 46.7042 25.3984C44.8067 25.3984 43.11 24.9879 41.614 24.1669C40.1362 23.3277 38.9776 22.1692 38.1384 20.6914C37.3174 19.2136 36.9069 17.526 36.9069 15.6285C36.9069 13.7311 37.3174 12.0435 38.1384 10.5657C38.9776 9.06966 40.1362 7.91109 41.614 7.09009C43.0918 6.25088 44.7794 5.83122 46.6768 5.83122C48.9756 5.83122 50.9095 6.38771 52.4786 7.5006C54.0658 8.61347 55.1149 10.1552 55.6257 12.1256L50.4534 12.1256ZM63.226 12.5361C63.7733 11.6969 64.4575 11.0401 65.2785 10.5657C66.0995 10.0731 67.0118 9.82677 68.0152 9.82677L68.0152 14.7801L66.7289 14.7801C65.5613 14.7801 64.6856 15.0356 64.1017 15.5464C63.5179 16.039 63.226 16.9148 63.226 18.1736L63.226 25.2616L58.5463 25.2616L58.5463 9.99097L63.226 9.99097L63.226 12.5361ZM77.2031 25.4805C75.707 25.4805 74.357 25.1613 73.1529 24.5227C71.9669 23.8841 71.0273 22.972 70.3341 21.786C69.659 20.6001 69.3215 19.2136 69.3215 17.6263C69.3215 16.0572 69.6681 14.6798 70.3615 13.4939C71.0547 12.2898 72.0035 11.3685 73.2076 10.7299C74.4117 10.0913 75.7618 9.77203 77.2579 9.77203C78.7539 9.77203 80.104 10.0913 81.3082 10.7299C82.5123 11.3685 83.461 12.2898 84.1543 13.4939C84.8475 14.6798 85.1942 16.0572 85.1942 17.6263C85.1942 19.1954 84.8385 20.5819 84.1269 21.786C83.4336 22.972 82.4758 23.8841 81.2534 24.5227C80.0493 25.1613 78.6992 25.4805 77.2031 25.4805ZM77.2031 21.4303C78.0971 21.4303 78.8542 21.1019 79.4746 20.4451C80.1131 19.7883 80.4324 18.8486 80.4324 17.6263C80.4324 16.4039 80.1222 15.4643 79.5019 14.8075C78.8999 14.1507 78.1518 13.8223 77.2579 13.8223C76.3456 13.8223 75.5885 14.1507 74.9864 14.8075C74.3844 15.4461 74.0833 16.3856 74.0833 17.6263C74.0833 18.8486 74.3752 19.7883 74.9591 20.4451C75.5611 21.1019 76.3091 21.4303 77.2031 21.4303ZM109.597 9.99097L105.465 25.2616L100.292 25.2616L97.8847 15.3548L95.3943 25.2616L90.2494 25.2616L86.0897 9.99097L90.7694 9.99097L92.9313 20.9103L95.5038 9.99097L100.457 9.99097L103.057 20.8556L105.191 9.99097L109.597 9.99097ZM119.045 13.877L116.527 13.877L116.527 25.2616L111.848 25.2616L111.848 13.877L110.151 13.877L110.151 9.99097L111.848 9.99097L111.848 9.5531C111.848 7.67395 112.385 6.25088 113.462 5.28389C114.539 4.29869 116.117 3.80608 118.197 3.80608C118.543 3.80608 118.799 3.81521 118.963 3.83345L118.963 7.80163C118.069 7.74689 117.44 7.87457 117.075 8.18476C116.709 8.49495 116.527 9.05134 116.527 9.85413L116.527 9.99097L119.045 9.99097L119.045 13.877ZM136.843 9.99097L127.264 32.5138L122.229 32.5138L125.732 24.7416L119.52 9.99097L124.747 9.99097L128.277 19.542L131.78 9.99097L136.843 9.99097Z" fill="#FFFFFF" fill-opacity="1.000000" fill-rule="nonzero"/>
	<path id="Vector" d="M16.005 7.36797C16.005 3.29874 19.3038 0 23.373 0L30.7409 0L30.7409 7.36797C30.7409 11.4372 27.4422 14.7359 23.373 14.7359C19.3038 14.7359 16.005 11.4372 16.005 7.36797Z" fill="#FF6D35" fill-opacity="1.000000" fill-rule="nonzero"/>
	<path id="Vector" d="M23.3729 32.4131C19.3037 32.4131 16.0049 29.1143 16.0049 25.0451L16.0049 17.6771L23.3729 17.6771C27.4421 17.6771 30.7408 20.9759 30.7408 25.0451C30.7408 29.1143 27.4421 32.4131 23.3729 32.4131Z" fill="#5CC97B" fill-opacity="1.000000" fill-rule="nonzero"/>
	<path id="Vector" d="M13.6834 15.3881C13.6834 7.21135 7.55711 0.582882 0 0.582882L0 24.7573C0 28.8456 3.06312 32.1599 6.84177 32.1599C10.6203 32.1599 13.6834 28.8456 13.6834 24.7573L13.6834 15.3881Z" fill="#3D96F4" fill-opacity="1.000000" fill-rule="nonzero"/>
</svg>
