<svg width="75.593750" height="75.593750" viewBox="0 0 75.5938 75.5938" fill="none" xmlns="http://www.w3.org/2000/svg" xmlns:xlink="http://www.w3.org/1999/xlink">
	<desc>
			Created with Pixso.
	</desc>
	<defs/>
	<g opacity="0.060000">
		<path id="Vector" d="M54.6848 0L20.9089 0C9.36121 0 0 9.36121 0 20.9089L0 54.6848C0 66.2325 9.36121 75.5938 20.9089 75.5938L54.6848 75.5938C66.2325 75.5938 75.5938 66.2325 75.5938 54.6848L75.5938 20.9089C75.5938 9.36121 66.2325 0 54.6848 0Z" fill="#FF6F35" fill-opacity="1.000000" fill-rule="nonzero"/>
	</g>
	<path id="Vector" d="M37.7969 63.5374C52.0129 63.5374 63.5374 52.0129 63.5374 37.7969C63.5374 23.5808 52.0129 12.0565 37.7969 12.0565C23.5808 12.0565 12.0565 23.5808 12.0565 37.7969C12.0565 52.0129 23.5808 63.5374 37.7969 63.5374Z" fill="#FFCD1D" fill-opacity="1.000000" fill-rule="nonzero"/>
	<path id="Vector" d="M37.7969 21.5791L37.7969 54.0148" stroke="#FFFFFF" stroke-opacity="1.000000" stroke-width="2.412567" stroke-linejoin="round" stroke-linecap="round"/>
	<path id="Vector" d="M45.1686 27.4764L34.1111 27.4764C32.7424 27.4764 31.4299 28.02 30.4622 28.9878C29.4944 29.9556 28.9508 31.2681 28.9508 32.6366C28.9508 34.0051 29.4944 35.3176 30.4622 36.2854C31.4299 37.2532 32.7424 37.7969 34.1111 37.7969L41.4827 37.7969C42.8513 37.7969 44.1638 38.3405 45.1316 39.3082C46.0994 40.2759 46.6429 41.5884 46.6429 42.957C46.6429 44.3257 46.0994 45.6382 45.1316 46.6058C44.1638 47.5736 42.8513 48.1172 41.4827 48.1172L28.9508 48.1172" stroke="#FFFFFF" stroke-opacity="1.000000" stroke-width="2.412567" stroke-linejoin="round" stroke-linecap="round"/>
</svg>
