<svg width="75.593750" height="75.593750" viewBox="0 0 75.5938 75.5938" fill="none" xmlns="http://www.w3.org/2000/svg" xmlns:xlink="http://www.w3.org/1999/xlink">
	<desc>
			Created with Pixso.
	</desc>
	<defs/>
	<g opacity="0.060000">
		<path id="Vector" d="M54.6848 0L20.9089 0C9.36121 0 0 9.36121 0 20.9089L0 54.6848C0 66.2325 9.36121 75.5938 20.9089 75.5938L54.6848 75.5938C66.2325 75.5938 75.5938 66.2325 75.5938 54.6848L75.5938 20.9089C75.5938 9.36121 66.2325 0 54.6848 0Z" fill="#5CC97B" fill-opacity="1.000000" fill-rule="nonzero"/>
	</g>
	<path id="Vector" d="M37.7969 63.5374C52.0129 63.5374 63.5374 52.0129 63.5374 37.7969C63.5374 23.5808 52.0129 12.0565 37.7969 12.0565C23.5808 12.0565 12.0565 23.5808 12.0565 37.7969C12.0565 52.0129 23.5808 63.5374 37.7969 63.5374Z" fill="#5CC97B" fill-opacity="1.000000" fill-rule="nonzero"/>
	<path id="Vector" d="M40.554 44.1698C38.7109 45.3885 36.4812 46.0594 34.1053 45.9614C28.0962 45.7133 23.4258 40.6401 23.674 34.6307C23.9221 28.6213 28.995 23.9517 35.0042 24.1998C41.0123 24.448 45.6837 29.52 45.4355 35.5295C45.3481 37.6478 44.661 39.5997 43.5447 41.2286L50.8813 48.3521C51.7865 49.3335 51.7542 50.8506 50.8241 51.7905L50.7812 51.8298L50.7361 51.869C49.7251 52.7185 48.2106 52.6274 47.3063 51.6453L40.554 44.1698ZM34.2091 43.4497C29.5869 43.2588 25.9941 39.3563 26.1851 34.7341C26.3759 30.1118 30.2782 26.519 34.9005 26.71C39.5227 26.9009 43.1156 30.8032 42.9247 35.4254C42.7338 40.0477 38.8313 43.6405 34.2091 43.4497Z" fill="#FFFFFF" fill-opacity="1.000000" fill-rule="evenodd"/>
</svg>
