<svg width="75.593750" height="75.593750" viewBox="0 0 75.5938 75.5938" fill="none" xmlns="http://www.w3.org/2000/svg" xmlns:xlink="http://www.w3.org/1999/xlink">
	<desc>
			Created with Pixso.
	</desc>
	<defs/>
	<g opacity="0.060000">
		<path id="Vector" d="M54.6848 0L20.9089 0C9.36127 0 0 9.36121 0 20.9089L0 54.6848C0 66.2325 9.36127 75.5938 20.9089 75.5938L54.6848 75.5938C66.2325 75.5938 75.5938 66.2325 75.5938 54.6848L75.5938 20.9089C75.5938 9.36121 66.2325 0 54.6848 0Z" fill="#0089FF" fill-opacity="1.000000" fill-rule="nonzero"/>
	</g>
	<path id="Vector" d="M37.797 63.5374C52.013 63.5374 63.5374 52.0129 63.5374 37.7969C63.5374 23.5808 52.013 12.0565 37.797 12.0565C23.5809 12.0565 12.0566 23.5808 12.0566 37.7969C12.0566 52.0129 23.5809 63.5374 37.797 63.5374Z" fill="#1B76FF" fill-opacity="1.000000" fill-rule="nonzero"/>
	<path id="Vector" d="M29.0328 32.7031L29.0328 50.8643L24.387 50.8643C23.6876 50.8643 23.1204 50.3242 23.1204 49.658L23.1204 33.9094C23.1204 33.2432 23.6876 32.7031 24.387 32.7031L29.0328 32.7031Z" stroke="#FFFFFF" stroke-opacity="1.000000" stroke-width="1.608378" stroke-linejoin="round"/>
	<path id="Vector" d="M46.566 50.8643L32.4984 50.8643C30.5871 50.8643 29.0328 49.4014 29.0328 47.6024L29.0328 32.7249C33.4941 32.2899 35.7247 30.7325 35.7247 26.5448L35.7247 24.538C35.7247 22.4226 37.5251 20.7079 39.7462 20.7079C40.5926 20.7079 41.4174 20.9622 42.1031 21.4346C43.0483 22.087 43.6506 23.3225 43.6506 25.1017L43.6506 30.9109C43.6506 31.405 44.4871 31.8103 45.3236 31.8103L49.811 31.8103C51.7015 31.8103 53.2347 33.2336 53.2767 35.0029C53.3048 36.1824 52.5662 39.8335 51.0609 47.4641C50.7668 49.7275 49.2545 50.8643 46.566 50.8643Z" stroke="#FFFFFF" stroke-opacity="1.000000" stroke-width="1.608378" stroke-linejoin="round"/>
</svg>
