<svg width="36.000000" height="36.000000" viewBox="0 0 36 36" fill="none" xmlns="http://www.w3.org/2000/svg" xmlns:xlink="http://www.w3.org/1999/xlink">
	<desc>
			Created with Pixso.
	</desc>
	<defs>
		<clipPath id="clip9_137">
			<rect id="Frame" width="20.000000" height="20.000000" transform="translate(8.000000 8.484375)" fill="white" fill-opacity="0"/>
		</clipPath>
	</defs>
	<rect id="Frame" width="20.000000" height="20.000000" transform="translate(8.000000 8.484375)" fill="#FFFFFF" fill-opacity="0"/>
	<g clip-path="url(#clip9_137)">
		<path id="Vector" d="M14.205 12.2344C14.2048 12.6318 14.0466 13.0132 13.7651 13.2944C13.4837 13.5757 13.1021 13.7334 12.7042 13.7334C12.3064 13.7334 11.925 13.5752 11.6438 13.2935C11.3626 13.0122 11.2048 12.6304 11.205 12.2324C11.2052 11.835 11.3634 11.4536 11.6449 11.1724C11.9263 10.8911 12.3079 10.7334 12.7057 10.7334C13.1036 10.7334 13.485 10.8916 13.7662 11.1733C14.0473 11.4546 14.2052 11.8364 14.205 12.2344ZM14.25 14.8442L11.25 14.8442L11.25 24.2344L14.25 24.2344L14.25 14.8442ZM18.99 14.8442L16.005 14.8442L16.005 24.2344L18.96 24.2344L18.96 19.3066C18.96 16.5615 22.5375 16.3066 22.5375 19.3066L22.5375 24.2344L25.5 24.2344L25.5 18.2866C25.5 13.6592 20.205 13.8315 18.96 16.104L18.99 14.8442Z" fill="#75757F" fill-opacity="1.000000" fill-rule="nonzero"/>
	</g>
	<rect id="a#w-node-_0dfbe7a0-261a-0002-65c5-22e86775eb31-6775eb1b" rx="9.000000" width="35.000000" height="35.000000" transform="translate(0.500000 0.500000)" stroke="#81818B" stroke-opacity="0.900000" stroke-width="1.000000"/>
</svg>
