<svg width="36.000000" height="36.000000" viewBox="0 0 36 36" fill="none" xmlns="http://www.w3.org/2000/svg" xmlns:xlink="http://www.w3.org/1999/xlink">
	<desc>
			Created with Pixso.
	</desc>
	<defs>
		<clipPath id="clip9_143">
			<rect id="Frame" width="20.000000" height="20.000000" transform="translate(8.000000 8.484375)" fill="white" fill-opacity="0"/>
		</clipPath>
	</defs>
	<rect id="Frame" width="20.000000" height="20.000000" transform="translate(8.000000 8.484375)" fill="#FFFFFF" fill-opacity="0"/>
	<g clip-path="url(#clip9_143)">
		<path id="Vector" d="M14.8 10.4844L21.2 10.4844C23.851 10.4844 26 12.6333 26 15.2842L26 21.6846C26 24.3354 23.851 26.4844 21.2 26.4844L14.8 26.4844C12.149 26.4844 10 24.3354 10 21.6846L10 15.2842C10 12.6333 12.149 10.4844 14.8 10.4844ZM14.8 12.0845C13.0327 12.0845 11.6 13.5171 11.6 15.2842L11.6 21.6846C11.6 23.4517 13.0327 24.8843 14.8 24.8843L21.2 24.8843C22.9673 24.8843 24.4 23.4517 24.4 21.6846L24.4 15.2842C24.4 13.5171 22.9673 12.0845 21.2 12.0845L14.8 12.0845ZM18 22.4844C15.7909 22.4844 14 20.6934 14 18.4844C14 16.2754 15.7909 14.4844 18 14.4844C20.2091 14.4844 22 16.2754 22 18.4844C22 20.6934 20.2091 22.4844 18 22.4844ZM18 20.8843C19.3255 20.8843 20.4 19.8101 20.4 18.4844C20.4 17.1587 19.3255 16.0845 18 16.0845C16.6745 16.0845 15.6 17.1587 15.6 18.4844C15.6 19.8101 16.6745 20.8843 18 20.8843ZM22 15.2842C21.5582 15.2842 21.2 14.9263 21.2 14.4844C21.2 14.0425 21.5582 13.6846 22 13.6846C22.4418 13.6846 22.8 14.0425 22.8 14.4844C22.8 14.9263 22.4418 15.2842 22 15.2842Z" fill="#75757F" fill-opacity="1.000000" fill-rule="evenodd"/>
	</g>
	<rect id="a#w-node-_0dfbe7a0-261a-0002-65c5-22e86775eb37-6775eb1b" rx="9.000000" width="35.000000" height="35.000000" transform="translate(0.500000 0.500000)" stroke="#81818B" stroke-opacity="0.900000" stroke-width="1.000000"/>
</svg>
