<svg width="36.000000" height="36.000000" viewBox="0 0 36 36" fill="none" xmlns="http://www.w3.org/2000/svg" xmlns:xlink="http://www.w3.org/1999/xlink">
	<desc>
			Created with Pixso.
	</desc>
	<defs>
		<clipPath id="clip9_134">
			<rect id="Frame" width="20.000000" height="20.000000" transform="translate(8.000000 8.484375)" fill="white" fill-opacity="0"/>
		</clipPath>
	</defs>
	<rect id="Frame" width="20.000000" height="20.000000" transform="translate(8.000000 8.484375)" fill="#FFFFFF" fill-opacity="0"/>
	<g clip-path="url(#clip9_134)">
		<path id="Vector" d="M23.359 14.3853C23.9874 13.9775 24.4035 13.4214 24.6072 12.7139C23.9959 13.0562 23.387 13.2915 22.7788 13.4214C22.232 12.7998 21.5399 12.4844 20.71 12.4844C19.8988 12.4844 19.2137 12.7852 18.6545 13.3701C18.0984 13.9595 17.8176 14.6753 17.8176 15.5112C17.8176 15.7651 17.8479 15.9922 17.9086 16.1846C15.5163 16.0981 13.5362 15.0493 11.9761 13.0308C11.7116 13.5249 11.5794 14.0278 11.5794 14.5479C11.5794 15.6172 12.0064 16.4648 12.8588 17.0869C12.3727 17.0435 11.9442 16.9136 11.5794 16.7007C11.5794 17.4639 11.7917 18.1016 12.2171 18.6631C12.6441 19.2188 13.1924 19.5728 13.8621 19.7241C13.6194 19.79 13.3635 19.8213 13.1007 19.8213C12.858 19.8213 12.6861 19.7998 12.5842 19.7529C12.7631 20.375 13.1007 20.8799 13.5883 21.2661C14.0744 21.6538 14.6336 21.8584 15.262 21.8765C14.226 22.7354 13.0415 23.1602 11.7015 23.1602C11.3733 23.1602 11.1408 23.1553 11 23.1289C12.3198 24.0347 13.789 24.4844 15.4144 24.4844C17.078 24.4844 18.5479 24.0391 19.8273 23.1479C21.1067 22.2622 22.0508 21.1689 22.6575 19.8818C23.2672 18.5967 23.569 17.2588 23.569 15.8613L23.569 15.4766C24.1585 15.0083 24.6352 14.4805 25 13.8979C24.4711 14.1387 23.9244 14.3022 23.359 14.3853Z" fill="#75757F" fill-opacity="1.000000" fill-rule="nonzero"/>
	</g>
	<rect id="a#w-node-_0dfbe7a0-261a-0002-65c5-22e86775eb2b-6775eb1b" rx="9.000000" width="35.000000" height="35.000000" transform="translate(0.500000 0.500000)" stroke="#81818B" stroke-opacity="0.900000" stroke-width="1.000000"/>
</svg>
