<svg width="36.000000" height="36.000000" viewBox="0 0 36 36" fill="none" xmlns="http://www.w3.org/2000/svg" xmlns:xlink="http://www.w3.org/1999/xlink">
	<desc>
			Created with Pixso.
	</desc>
	<defs>
		<clipPath id="clip9_141">
			<rect id="Frame" width="20.000000" height="17.777779" transform="translate(8.000000 9.484375)" fill="white" fill-opacity="0"/>
		</clipPath>
	</defs>
	<rect id="Frame" width="20.000000" height="17.777779" transform="translate(8.000000 9.484375)" fill="#75757F" fill-opacity="0"/>
	<g clip-path="url(#clip9_141)">
		<path id="Vector" d="M25.6656 14.3618C25.4817 13.623 24.9395 13.041 24.2511 12.8433C23.0034 12.4844 18 12.4844 18 12.4844C18 12.4844 12.9967 12.4844 11.7489 12.8433C11.0605 13.041 10.5183 13.623 10.3344 14.3618C10 15.7017 10 18.4966 10 18.4966C10 18.4966 10 21.2915 10.3344 22.6309C10.5183 23.3701 11.0605 23.9277 11.7489 24.1255C12.9967 24.4844 18 24.4844 18 24.4844C18 24.4844 23.0033 24.4844 24.2511 24.1255C24.9395 23.9277 25.4817 23.3701 25.6656 22.6309C26 21.2915 26 18.4966 26 18.4966C26 18.4966 26 15.7017 25.6656 14.3618ZM16.3636 21.0342L16.3636 15.959L20.5454 18.4966L16.3636 21.0342Z" fill="#75757F" fill-opacity="1.000000" fill-rule="nonzero"/>
	</g>
	<rect id="a#w-node-_0dfbe7a0-261a-0002-65c5-22e86775eb34-6775eb1b" rx="9.000000" width="35.000000" height="35.000000" transform="translate(0.500000 0.500000)" stroke="#81818B" stroke-opacity="0.900000" stroke-width="1.000000"/>
</svg>
