<svg width="209.999939" height="78.750000" viewBox="0 0 210 78.75" fill="none" xmlns="http://www.w3.org/2000/svg" xmlns:xlink="http://www.w3.org/1999/xlink">
	<desc>
			Created with Pixso.
	</desc>
	<defs>
		<clipPath id="clip1_142">
			<rect id="62fbcc73ef501c1bcc12926a_Greenish%20Logo.svg" width="209.999939" height="78.749977" fill="white" fill-opacity="0"/>
		</clipPath>
	</defs>
	<g clip-path="url(#clip1_142)">
		<path id="Vector" d="M75.7065 51.5659C73.3498 51.5659 71.2666 51.0911 69.4569 50.1423C67.6467 49.1715 66.2476 47.8018 65.2585 46.0332C64.27 44.2645 63.7754 42.1831 63.7754 39.7889C63.7754 37.3947 64.27 35.3132 65.2585 33.5446C66.2476 31.7543 67.6467 30.3846 69.4569 29.4355C71.2666 28.465 73.3498 27.9796 75.7065 27.9796C77.3062 27.9796 78.7158 28.1522 79.9365 28.4973C81.1781 28.8208 82.3142 29.3385 83.3453 30.0503L83.3453 34.7416C82.4197 33.9651 81.3571 33.4043 80.1575 33.0592C78.9789 32.6925 77.6323 32.5092 76.1171 32.5092C74.7075 32.5092 73.4338 32.8112 72.2977 33.415C71.1826 33.9974 70.2985 34.8386 69.6465 35.9387C68.9939 37.0387 68.6678 38.3221 68.6678 39.7889C68.6678 41.2772 68.9624 42.5822 69.5515 43.7037C70.162 44.8037 71.0141 45.6558 72.1082 46.2596C73.2023 46.8636 74.4655 47.1656 75.8961 47.1656C77.2007 47.1656 78.3368 46.9283 79.3049 46.4539L79.3049 42.0859L75.738 42.0859L75.738 38.4623L83.9448 38.4623L83.9448 49.3657C81.8616 50.8324 79.1159 51.5659 75.7065 51.5659Z" fill="#81818B" fill-opacity="1.000000" fill-rule="nonzero"/>
		<path id="Vector" d="M85.0531 35.5505L89.6616 35.5505L89.6616 37.783C90.2721 37.0281 91.1242 36.4564 92.2183 36.0682C93.3124 35.6583 94.5546 35.4535 95.9432 35.4535L95.9432 39.1742C94.491 39.1742 93.2074 39.4006 92.0923 39.8536C90.9977 40.3066 90.2401 40.9968 89.8196 41.9243L89.8196 51.0807L85.0531 51.0807L85.0531 35.5505Z" fill="#81818B" fill-opacity="1.000000" fill-rule="nonzero"/>
		<path id="Vector" d="M105.103 51.566C102.199 51.566 99.9153 50.8539 98.2532 49.4302C96.5905 47.9855 95.7594 45.9685 95.7594 43.3801C95.7594 40.8134 96.496 38.7859 97.9691 37.2976C99.4633 35.8093 101.589 35.0652 104.345 35.0652C106.155 35.0652 107.691 35.4103 108.954 36.1005C110.216 36.7906 111.174 37.7506 111.826 38.98C112.479 40.1879 112.805 41.5576 112.805 43.089L112.805 45.0626L100.305 45.0626C100.641 47.047 102.451 48.0394 105.734 48.0394C106.702 48.0394 107.702 47.953 108.733 47.7803C109.764 47.6078 110.658 47.3705 111.416 47.0686L111.416 50.4983C110.679 50.8214 109.732 51.0806 108.575 51.2749C107.418 51.4686 106.26 51.566 105.103 51.566ZM108.291 41.892C108.228 40.8566 107.849 40.0585 107.155 39.4977C106.46 38.9153 105.502 38.6241 104.282 38.6241C103.083 38.6241 102.135 38.9153 101.441 39.4977C100.747 40.0801 100.368 40.8782 100.305 41.892L108.291 41.892Z" fill="#81818B" fill-opacity="1.000000" fill-rule="nonzero"/>
		<path id="Vector" d="M122.574 51.566C119.671 51.566 117.387 50.8539 115.725 49.4302C114.063 47.9855 113.231 45.9685 113.231 43.3801C113.231 40.8134 113.968 38.7859 115.441 37.2976C116.935 35.8093 119.06 35.0652 121.817 35.0652C123.627 35.0652 125.163 35.4103 126.426 36.1005C127.688 36.7906 128.645 37.7506 129.298 38.98C129.95 40.1879 130.276 41.5576 130.276 43.089L130.276 45.0626L117.776 45.0626C118.113 47.047 119.923 48.0394 123.206 48.0394C124.174 48.0394 125.174 47.953 126.204 47.7803C127.235 47.6078 128.13 47.3705 128.888 47.0686L128.888 50.4983C128.151 50.8214 127.204 51.0806 126.047 51.2749C124.889 51.4686 123.732 51.566 122.574 51.566ZM125.763 41.892C125.699 40.8566 125.321 40.0585 124.627 39.4977C123.931 38.9153 122.974 38.6241 121.754 38.6241C120.554 38.6241 119.608 38.9153 118.913 39.4977C118.218 40.0801 117.84 40.8782 117.776 41.892L125.763 41.892Z" fill="#81818B" fill-opacity="1.000000" fill-rule="nonzero"/>
		<path id="Vector" d="M131.334 35.5505L135.942 35.5505L135.942 37.4594C136.637 36.6614 137.457 36.0682 138.405 35.6799C139.373 35.2701 140.383 35.0652 141.435 35.0652C143.498 35.0652 145.034 35.6367 146.043 36.7799C147.074 37.9016 147.591 39.4222 147.591 41.3419L147.591 51.0806L142.824 51.0806L142.824 41.892C142.824 39.886 141.919 38.8829 140.109 38.8829C139.31 38.8829 138.563 39.0879 137.868 39.4977C137.173 39.886 136.584 40.4684 136.1 41.2448L136.1 51.0806L131.334 51.0806L131.334 35.5505Z" fill="#81818B" fill-opacity="1.000000" fill-rule="nonzero"/>
		<path id="Vector" d="M151.795 33.1562C151.059 33.1562 150.439 32.9082 149.934 32.4121C149.428 31.916 149.176 31.2905 149.176 30.5355C149.176 29.8022 149.428 29.1875 149.934 28.6914C150.439 28.1737 151.059 27.9149 151.795 27.9149C152.532 27.9149 153.153 28.1737 153.658 28.6914C154.163 29.1875 154.415 29.8022 154.415 30.5355C154.415 31.2905 154.163 31.916 153.658 32.4121C153.153 32.9082 152.532 33.1562 151.795 33.1562ZM149.396 35.5504L154.195 35.5504L154.195 51.0806L149.396 51.0806L149.396 35.5504Z" fill="#81818B" fill-opacity="1.000000" fill-rule="nonzero"/>
		<path id="Vector" d="M162.324 51.566C161.188 51.566 159.967 51.4362 158.662 51.1775C157.379 50.9403 156.369 50.5952 155.632 50.1423L155.632 46.3245C156.474 46.842 157.484 47.2627 158.662 47.5862C159.841 47.9097 160.935 48.0714 161.945 48.0714C162.808 48.0714 163.439 47.996 163.839 47.8451C164.238 47.6941 164.438 47.4137 164.438 47.0039C164.438 46.6803 164.323 46.4215 164.091 46.2274C163.86 46.0117 163.502 45.8284 163.018 45.6774C162.555 45.5048 161.776 45.2567 160.682 44.9332C159.399 44.5449 158.388 44.1567 157.652 43.7684C156.937 43.3586 156.39 42.8518 156.011 42.2478C155.653 41.6438 155.474 40.8673 155.474 39.9183C155.474 38.3005 156.095 37.0927 157.337 36.2947C158.599 35.475 160.304 35.0652 162.45 35.0652C163.502 35.0652 164.586 35.1838 165.701 35.421C166.837 35.6367 167.711 35.928 168.321 36.2947L168.321 40.0154C167.711 39.6056 166.911 39.2712 165.922 39.0125C164.955 38.7535 164.007 38.6241 163.081 38.6241C162.218 38.6241 161.545 38.7104 161.061 38.8829C160.599 39.0555 160.367 39.379 160.367 39.8536C160.367 40.2634 160.588 40.5762 161.03 40.7919C161.492 41.0076 162.345 41.2772 163.586 41.6007L164.218 41.7625C165.544 42.1292 166.574 42.5389 167.311 42.9919C168.047 43.4233 168.563 43.9518 168.858 44.5773C169.173 45.1813 169.331 45.947 169.331 46.8744C169.331 48.2981 168.731 49.4412 167.532 50.3041C166.333 51.145 164.596 51.566 162.324 51.566Z" fill="#81818B" fill-opacity="1.000000" fill-rule="nonzero"/>
		<path id="Vector" d="M170.433 27.1708L175.199 27.1708L175.199 37.33C175.915 36.5751 176.725 36.0143 177.629 35.6476C178.535 35.2593 179.503 35.0652 180.534 35.0652C182.596 35.0652 184.132 35.6367 185.142 36.7799C186.173 37.9016 186.689 39.4222 186.689 41.3419L186.689 51.0807L181.923 51.0807L181.923 41.892C181.923 39.886 181.018 38.8831 179.208 38.8831C178.408 38.8831 177.662 39.0879 176.967 39.4977C176.272 39.886 175.683 40.4684 175.199 41.2449L175.199 51.0807L170.433 51.0807L170.433 27.1708Z" fill="#81818B" fill-opacity="1.000000" fill-rule="nonzero"/>
		<path id="Vector" d="M47.4972 31.7485C47.4972 35.8583 44.2471 39.1899 40.2375 39.1899C36.2279 39.1899 32.9775 35.8583 32.9775 31.7485C32.9775 27.6388 36.2279 24.3071 40.2375 24.3071C44.2471 24.3071 47.4972 27.6388 47.4972 31.7485ZM23.3502 38.6492C31.2598 38.1027 38.1532 44.1726 38.7953 52.2971C38.8618 53.1389 38.8586 53.97 38.7907 54.7848C30.8812 55.3313 23.9877 49.2612 23.3456 41.1368C23.2792 40.2949 23.2823 39.4637 23.3502 38.6492ZM43.9083 54.5002C51.8346 53.8419 57.7563 46.7764 57.2234 38.6692C56.4285 38.5995 55.6179 38.5962 54.7963 38.6644C46.87 39.3225 40.9482 46.3883 41.4814 54.4955C42.2761 54.5653 43.0869 54.5685 43.9083 54.5002Z" fill="#81818B" fill-opacity="1.000000" fill-rule="evenodd"/>
	</g>
</svg>
