<svg width="210.000000" height="78.750000" viewBox="0 0 210 78.75" fill="none" xmlns="http://www.w3.org/2000/svg" xmlns:xlink="http://www.w3.org/1999/xlink">
	<desc>
			Created with Pixso.
	</desc>
	<defs>
		<clipPath id="clip1_102">
			<rect id="62fbcc4e6f486717da802261_Luminous%20Logo.svg" width="210.000000" height="78.750000" fill="white" fill-opacity="0"/>
		</clipPath>
	</defs>
	<g clip-path="url(#clip1_102)">
		<path id="Vector" d="M29.6956 28.0299C31.8498 26.0681 34.7749 24.923 37.7395 24.7805C38.7542 24.7805 39.7718 24.7863 40.7865 24.7776C40.7347 25.8153 40.7865 26.8557 40.756 27.8933C40.6128 30.2128 39.7139 32.4799 38.1996 34.2992C36.2313 36.7466 33.2209 38.3887 30.0247 38.8131C28.6292 39.0281 27.2123 38.8915 25.8077 38.9293C25.8321 37.787 25.7559 36.642 25.8504 35.5026C26.1246 32.6775 27.5232 29.9716 29.6956 28.0299Z" fill="#81818B" fill-opacity="1.000000" fill-rule="nonzero"/>
		<path id="Vector" d="M41.726 24.7776C42.8138 24.7892 43.9016 24.7719 44.9924 24.7834C47.7072 24.9664 50.3855 25.9606 52.4298 27.6842C54.6845 29.5298 56.2296 32.1688 56.6254 34.9882C56.7992 36.296 56.6895 37.6184 56.7567 38.9323C55.8059 38.9293 54.8583 38.9264 53.9075 38.9323C51.5707 38.8712 49.2733 38.1504 47.3172 36.9355C46.4153 36.3193 45.489 35.6945 44.8126 34.8398C43.3288 33.2588 42.3202 31.2737 41.9393 29.181C41.6529 27.7277 41.7687 26.2454 41.726 24.7776Z" fill="#81818B" fill-opacity="1.000000" fill-rule="nonzero"/>
		<path id="Vector" d="M25.8098 39.7634C26.7757 39.8157 27.7446 39.7198 28.7074 39.8215C32.8299 39.9058 36.8306 42.1147 38.9664 45.4775C40.1914 47.361 40.8495 49.5933 40.7642 51.8107C40.7611 52.5378 40.7733 53.2612 40.752 53.9852C39.2224 53.9412 37.6776 54.0603 36.1633 53.7784C32.7995 53.2382 29.7069 51.3282 27.8451 48.6021C26.4344 46.6199 25.7306 44.1987 25.8037 41.8066C25.8037 41.1237 25.8037 40.4435 25.8098 39.7634Z" fill="#81818B" fill-opacity="1.000000" fill-rule="nonzero"/>
		<path id="Vector" d="M51.6084 40.0714C53.266 39.7196 54.9748 39.7777 56.6601 39.7777L56.7336 39.8475C56.6968 41.3677 56.8218 42.9052 56.5021 44.4078C55.8285 47.7794 53.4886 50.7903 50.3409 52.4441C48.3817 53.485 46.1331 53.9963 43.8936 53.9731C43.1776 53.9763 42.4585 53.9617 41.7425 53.9816C41.7425 52.7231 41.6876 51.4592 41.8369 50.2061C42.1843 47.1748 43.9028 44.3527 46.3738 42.4459C47.9034 41.295 49.7011 40.4608 51.6084 40.0714Z" fill="#81818B" fill-opacity="1.000000" fill-rule="nonzero"/>
		<path id="Vector" d="M69.2417 48.3553C69.2417 48.8671 69.0559 49.2999 68.6852 49.6543C68.334 49.989 67.8904 50.1562 67.3544 50.1562C66.8383 50.1562 66.4052 49.989 66.0545 49.6543C65.7038 49.2999 65.5284 48.8671 65.5284 48.3553L65.5284 30.1118C65.5284 29.6001 65.7038 29.177 66.0545 28.8424C66.4256 28.4882 66.8798 28.311 67.4163 28.311C67.9523 28.311 68.3855 28.4882 68.7157 28.8424C69.0664 29.177 69.2417 29.6001 69.2417 30.1118L69.2417 48.3553Z" fill="#81818B" fill-opacity="1.000000" fill-rule="nonzero"/>
		<path id="Vector" d="M84.1475 34.3628C84.6836 34.3628 85.1272 34.5399 85.4784 34.8942C85.8286 35.2286 86.0039 35.6519 86.0039 36.1635L86.0039 43.6617C86.0039 45.7478 85.3954 47.4009 84.1785 48.6211C82.961 49.8413 81.2075 50.4512 78.917 50.4512C76.6274 50.4512 74.8734 49.8413 73.6565 48.6211C72.46 47.4009 71.8615 45.7478 71.8615 43.6617L71.8615 36.1635C71.8615 35.6519 72.0368 35.2286 72.3875 34.8942C72.7382 34.5399 73.1819 34.3628 73.7184 34.3628C74.2549 34.3628 74.6981 34.5399 75.0488 34.8942C75.4 35.2286 75.5753 35.6519 75.5753 36.1635L75.5753 43.6617C75.5753 44.8622 75.8541 45.7576 76.4106 46.348C76.9676 46.9188 77.8034 47.2041 78.917 47.2041C80.0525 47.2041 80.8978 46.9188 81.4553 46.348C82.0118 45.7576 82.2906 44.8622 82.2906 43.6617L82.2906 36.1635C82.2906 35.6519 82.466 35.2286 82.8167 34.8942C83.1674 34.5399 83.611 34.3628 84.1475 34.3628Z" fill="#81818B" fill-opacity="1.000000" fill-rule="nonzero"/>
		<path id="Vector" d="M97.1733 34.0676C98.8239 34.0676 100.041 34.4513 100.825 35.2189C101.609 35.9668 102.125 36.9409 102.372 38.1414L101.846 37.8757L102.094 37.4034C102.341 36.9507 102.723 36.4686 103.239 35.9569C103.755 35.4255 104.374 34.9828 105.096 34.6285C105.838 34.2545 106.664 34.0676 107.571 34.0676C109.057 34.0676 110.181 34.3727 110.945 34.9827C111.729 35.5928 112.265 36.4095 112.554 37.433C112.843 38.4366 112.987 39.5583 112.987 40.7982L112.987 48.3555C112.987 48.8672 112.812 49.2999 112.461 49.6543C112.11 49.989 111.667 50.1564 111.13 50.1564C110.594 50.1564 110.15 49.989 109.8 49.6543C109.449 49.2999 109.273 48.8672 109.273 48.3555L109.273 40.7982C109.273 40.1488 109.191 39.5682 109.026 39.0565C108.861 38.5251 108.562 38.1021 108.128 37.7871C107.695 37.4723 107.076 37.3148 106.272 37.3148C105.488 37.3148 104.817 37.4723 104.26 37.7871C103.703 38.1021 103.28 38.5251 102.991 39.0565C102.723 39.5682 102.589 40.1488 102.589 40.7982L102.589 48.3555C102.589 48.8672 102.413 49.2999 102.063 49.6543C101.712 49.989 101.268 50.1564 100.732 50.1564C100.196 50.1564 99.7521 49.989 99.4019 49.6543C99.0507 49.2999 98.8754 48.8672 98.8754 48.3555L98.8754 40.7982C98.8754 40.1488 98.7929 39.5682 98.6276 39.0565C98.4627 38.5251 98.1635 38.1021 97.7303 37.7871C97.2972 37.4723 96.6777 37.3148 95.8734 37.3148C95.0896 37.3148 94.4192 37.4723 93.8616 37.7871C93.3051 38.1021 92.882 38.5251 92.5932 39.0565C92.3249 39.5682 92.1911 40.1488 92.1911 40.7982L92.1911 48.3555C92.1911 48.8672 92.0157 49.2999 91.665 49.6543C91.3138 49.989 90.8707 50.1564 90.3341 50.1564C89.7976 50.1564 89.3545 49.989 89.0033 49.6543C88.6526 49.2999 88.4772 48.8672 88.4772 48.3555L88.4772 36.1636C88.4772 35.6519 88.6526 35.2288 89.0033 34.8942C89.3545 34.5399 89.7976 34.3628 90.3341 34.3628C90.8707 34.3628 91.3138 34.5399 91.665 34.8942C92.0157 35.2288 92.1911 35.6519 92.1911 36.1636L92.1911 37.433L91.7264 37.3444C91.9123 37.0098 92.1706 36.6555 92.5003 36.2816C92.8305 35.8881 93.2327 35.5239 93.7072 35.1893C94.1819 34.8549 94.7079 34.5891 95.2854 34.3923C95.8634 34.1758 96.4929 34.0676 97.1733 34.0676Z" fill="#81818B" fill-opacity="1.000000" fill-rule="nonzero"/>
		<path id="Vector" d="M118.956 48.3555C118.956 48.8672 118.781 49.2999 118.43 49.6543C118.079 49.989 117.636 50.1564 117.099 50.1564C116.563 50.1564 116.119 49.989 115.768 49.6543C115.418 49.2999 115.243 48.8672 115.243 48.3555L115.243 36.1636C115.243 35.6519 115.418 35.2288 115.768 34.8942C116.119 34.5399 116.563 34.3628 117.099 34.3628C117.636 34.3628 118.079 34.5399 118.43 34.8942C118.781 35.2288 118.956 35.6519 118.956 36.1636L118.956 48.3555ZM117.068 32.444C116.367 32.444 115.872 32.3358 115.582 32.1193C115.294 31.9028 115.15 31.519 115.15 30.968L115.15 30.4071C115.15 29.8364 115.305 29.4525 115.613 29.2557C115.944 29.0393 116.439 28.931 117.099 28.931C117.822 28.931 118.327 29.0393 118.615 29.2557C118.905 29.4723 119.049 29.8561 119.049 30.4071L119.049 30.968C119.049 31.5387 118.894 31.9323 118.584 32.1488C118.276 32.3456 117.77 32.444 117.068 32.444Z" fill="#81818B" fill-opacity="1.000000" fill-rule="nonzero"/>
		<path id="Vector" d="M130.076 34.0676C131.603 34.0676 132.758 34.3727 133.542 34.9827C134.347 35.5928 134.893 36.4095 135.182 37.433C135.492 38.4366 135.646 39.5583 135.646 40.7982L135.646 48.3555C135.646 48.8672 135.471 49.2999 135.12 49.6543C134.77 49.989 134.326 50.1564 133.789 50.1564C133.253 50.1564 132.81 49.989 132.459 49.6543C132.108 49.2999 131.932 48.8672 131.932 48.3555L131.932 40.7982C131.932 40.1488 131.84 39.5682 131.655 39.0565C131.489 38.5251 131.18 38.1021 130.726 37.7871C130.272 37.4723 129.622 37.3148 128.776 37.3148C127.951 37.3148 127.25 37.4723 126.672 37.7871C126.115 38.1021 125.682 38.5251 125.372 39.0565C125.083 39.5682 124.938 40.1488 124.938 40.7982L124.938 48.3555C124.938 48.8672 124.764 49.2999 124.413 49.6543C124.062 49.989 123.618 50.1564 123.082 50.1564C122.546 50.1564 122.102 49.989 121.752 49.6543C121.4 49.2999 121.225 48.8672 121.225 48.3555L121.225 36.1636C121.225 35.6519 121.4 35.2288 121.752 34.8942C122.102 34.5399 122.546 34.3628 123.082 34.3628C123.618 34.3628 124.062 34.5399 124.413 34.8942C124.764 35.2288 124.938 35.6519 124.938 36.1636L124.938 37.433L124.475 37.3444C124.661 37.0098 124.928 36.6555 125.279 36.2816C125.63 35.8881 126.043 35.5239 126.517 35.1893C126.992 34.8549 127.528 34.5891 128.126 34.3923C128.725 34.1758 129.375 34.0676 130.076 34.0676Z" fill="#81818B" fill-opacity="1.000000" fill-rule="nonzero"/>
		<path id="Vector" d="M154.02 42.2742C154.02 43.8881 153.638 45.3148 152.875 46.5547C152.132 47.7749 151.121 48.7294 149.842 49.4181C148.583 50.1072 147.17 50.4512 145.602 50.4512C144.034 50.4512 142.61 50.1072 141.332 49.4181C140.073 48.7294 139.062 47.7749 138.299 46.5547C137.556 45.3148 137.185 43.8881 137.185 42.2742C137.185 40.6605 137.556 39.2435 138.299 38.0233C139.062 36.7834 140.073 35.8191 141.332 35.1304C142.61 34.4219 144.034 34.0676 145.602 34.0676C147.17 34.0676 148.583 34.4219 149.842 35.1304C151.121 35.8191 152.132 36.7834 152.875 38.0233C153.638 39.2435 154.02 40.6605 154.02 42.2742ZM150.306 42.2742C150.306 41.2706 150.09 40.4047 149.656 39.6765C149.243 38.9286 148.676 38.348 147.954 37.9348C147.253 37.5215 146.469 37.3148 145.602 37.3148C144.736 37.3148 143.941 37.5215 143.219 37.9348C142.518 38.348 141.95 38.9286 141.517 39.6765C141.105 40.4047 140.898 41.2706 140.898 42.2742C140.898 43.2583 141.105 44.1241 141.517 44.8721C141.95 45.6002 142.518 46.1709 143.219 46.5842C143.941 46.9976 144.736 47.2041 145.602 47.2041C146.469 47.2041 147.253 46.9976 147.954 46.5842C148.676 46.1709 149.243 45.6002 149.656 44.8721C150.09 44.1241 150.306 43.2583 150.306 42.2742Z" fill="#81818B" fill-opacity="1.000000" fill-rule="nonzero"/>
		<path id="Vector" d="M167.861 34.3628C168.397 34.3628 168.841 34.5399 169.192 34.8942C169.542 35.2286 169.718 35.6519 169.718 36.1635L169.718 43.6617C169.718 45.7478 169.109 47.4009 167.892 48.6211C166.674 49.8413 164.921 50.4512 162.631 50.4512C160.341 50.4512 158.587 49.8413 157.37 48.6211C156.173 47.4009 155.575 45.7478 155.575 43.6617L155.575 36.1635C155.575 35.6519 155.75 35.2286 156.101 34.8942C156.452 34.5399 156.895 34.3628 157.432 34.3628C157.968 34.3628 158.412 34.5399 158.763 34.8942C159.113 35.2286 159.289 35.6519 159.289 36.1635L159.289 43.6617C159.289 44.8622 159.567 45.7576 160.124 46.348C160.681 46.9188 161.517 47.2041 162.631 47.2041C163.765 47.2041 164.612 46.9188 165.168 46.348C165.726 45.7576 166.004 44.8622 166.004 43.6617L166.004 36.1635C166.004 35.6519 166.18 35.2286 166.53 34.8942C166.881 34.5399 167.325 34.3628 167.861 34.3628Z" fill="#81818B" fill-opacity="1.000000" fill-rule="nonzero"/>
		<path id="Vector" d="M171.231 47.7061C171.025 47.4305 170.932 47.0762 170.953 46.6433C170.974 46.2103 171.242 45.8364 171.758 45.5215C172.088 45.3247 172.438 45.246 172.81 45.2854C173.181 45.3051 173.542 45.4822 173.893 45.8167C174.492 46.3873 175.121 46.8302 175.781 47.1451C176.441 47.46 177.266 47.6174 178.256 47.6174C178.566 47.5977 178.906 47.5583 179.278 47.4994C179.649 47.4207 179.969 47.2632 180.237 47.0271C180.525 46.7712 180.67 46.3873 180.67 45.8757C180.67 45.4427 180.515 45.0984 180.206 44.8425C179.897 44.5867 179.484 44.3702 178.968 44.1931C178.473 44.016 177.916 43.8486 177.297 43.6913C176.657 43.5142 175.997 43.3174 175.316 43.1008C174.656 42.8844 174.047 42.6089 173.49 42.2742C172.934 41.92 172.48 41.4575 172.129 40.8868C171.778 40.316 171.603 39.5977 171.603 38.7318C171.603 37.7478 171.891 36.9114 172.469 36.2225C173.047 35.5338 173.79 35.0024 174.697 34.6285C175.626 34.2545 176.595 34.0676 177.606 34.0676C178.246 34.0676 178.916 34.1464 179.618 34.3037C180.319 34.4415 180.99 34.6777 181.63 35.0122C182.269 35.3271 182.806 35.7502 183.239 36.2816C183.465 36.5768 183.6 36.931 183.641 37.3444C183.682 37.7577 183.486 38.1316 183.053 38.4662C182.744 38.7023 182.383 38.8105 181.97 38.7909C181.558 38.7515 181.217 38.6138 180.949 38.3776C180.598 37.9446 180.124 37.6002 179.525 37.3444C178.947 37.0885 178.277 36.9606 177.514 36.9606C177.204 36.9606 176.864 37 176.492 37.0786C176.142 37.1377 175.832 37.2854 175.564 37.5215C175.296 37.7379 175.162 38.0922 175.162 38.5842C175.162 39.0369 175.316 39.401 175.626 39.6765C175.935 39.9323 176.348 40.1488 176.864 40.3259C177.4 40.4834 177.968 40.6409 178.566 40.7982C179.185 40.9557 179.814 41.1426 180.454 41.3591C181.094 41.5757 181.681 41.861 182.218 42.2152C182.754 42.5695 183.187 43.032 183.517 43.6027C183.848 44.1537 184.013 44.8622 184.013 45.7281C184.013 46.7318 183.703 47.588 183.084 48.2964C182.465 49.0049 181.691 49.546 180.763 49.9202C179.835 50.2745 178.885 50.4512 177.916 50.4512C176.699 50.4512 175.482 50.2548 174.264 49.8611C173.047 49.4476 172.036 48.7294 171.231 47.7061Z" fill="#81818B" fill-opacity="1.000000" fill-rule="nonzero"/>
	</g>
</svg>
