<svg width="210.000000" height="78.750000" viewBox="0 0 210 78.75" fill="none" xmlns="http://www.w3.org/2000/svg" xmlns:xlink="http://www.w3.org/1999/xlink">
	<desc>
			Created with Pixso.
	</desc>
	<defs>
		<clipPath id="clip1_130">
			<rect id="62fbd170e519139c79642e53_Pronature%20Logo.svg" width="210.000000" height="78.750000" fill="white" fill-opacity="0"/>
		</clipPath>
	</defs>
	<g clip-path="url(#clip1_130)">
		<path id="Vector" d="M71.0682 30.5348C72.6558 30.5348 74.0297 30.7903 75.1905 31.3014C76.368 31.8124 77.2721 32.5378 77.9037 33.4775C78.5353 34.4172 78.8513 35.53 78.8513 36.816C78.8513 38.0854 78.5353 39.1982 77.9037 40.1544C77.2721 41.0941 76.368 41.8195 75.1905 42.3308C74.0297 42.8251 72.6558 43.0725 71.0682 43.0725L67.4588 43.0725L67.4588 47.8453L63.3118 47.8453L63.3118 30.5348L71.0682 30.5348ZM70.8382 39.8082C72.0835 39.8082 73.0311 39.5526 73.6795 39.0416C74.3284 38.514 74.6523 37.7722 74.6523 36.816C74.6523 35.8433 74.3284 35.1014 73.6795 34.5903C73.0311 34.0627 72.0835 33.7991 70.8382 33.7991L67.4588 33.7991L67.4588 39.8082L70.8382 39.8082Z" fill="#81818B" fill-opacity="1.000000" fill-rule="nonzero"/>
		<path id="Vector" d="M84.0651 36.2968C84.5423 35.6538 85.1828 35.1674 85.9845 34.8376C86.804 34.5079 87.7422 34.3431 88.8006 34.3431L88.8006 37.9041C88.3569 37.8711 88.0582 37.8546 87.9044 37.8546C86.7609 37.8546 85.8653 38.168 85.2169 38.7943C84.568 39.4043 84.2436 40.3275 84.2436 41.564L84.2436 47.8453L80.2504 47.8453L80.2504 34.541L84.0651 34.541L84.0651 36.2968Z" fill="#81818B" fill-opacity="1.000000" fill-rule="nonzero"/>
		<path id="Vector" d="M96.3239 48.0428C94.8733 48.0428 93.5676 47.7546 92.4073 47.1775C91.2639 46.5841 90.3677 45.7678 89.7194 44.7291C89.071 43.6906 88.7465 42.5118 88.7465 41.1931C88.7465 39.8741 89.071 38.6954 89.7194 37.6567C90.3677 36.6182 91.2639 35.8104 92.4073 35.2334C93.5676 34.6399 94.8733 34.3431 96.3239 34.3431C97.7744 34.3431 99.0717 34.6399 100.215 35.2334C101.359 35.8104 102.255 36.6182 102.904 37.6567C103.552 38.6954 103.876 39.8741 103.876 41.1931C103.876 42.5118 103.552 43.6906 102.904 44.7291C102.255 45.7678 101.359 46.5841 100.215 47.1775C99.0717 47.7546 97.7744 48.0428 96.3239 48.0428ZM96.3239 44.8776C97.3481 44.8776 98.1844 44.5482 98.8328 43.8884C99.4985 43.2126 99.8309 42.3143 99.8309 41.1931C99.8309 40.072 99.4985 39.1818 98.8328 38.5223C98.1844 37.8463 97.3481 37.5084 96.3239 37.5084C95.3001 37.5084 94.4554 37.8463 93.7897 38.5223C93.124 39.1818 92.7911 40.072 92.7911 41.1931C92.7911 42.3143 93.124 43.2126 93.7897 43.8884C94.4554 44.5482 95.3001 44.8776 96.3239 44.8776Z" fill="#81818B" fill-opacity="1.000000" fill-rule="nonzero"/>
		<path id="Vector" d="M121.983 30.5348L121.983 47.8453L118.578 47.8453L109.643 37.3353L109.643 47.8453L105.547 47.8453L105.547 30.5348L108.977 30.5348L117.887 41.0447L117.887 30.5348L121.983 30.5348Z" fill="#81818B" fill-opacity="1.000000" fill-rule="nonzero"/>
		<path id="Vector" d="M130.216 34.3431C132.349 34.3431 133.988 34.8376 135.131 35.8269C136.275 36.7996 136.846 38.275 136.846 40.2534L136.846 47.8453L133.109 47.8453L133.109 46.1884C132.358 47.4248 130.959 48.0428 128.911 48.0428C127.852 48.0428 126.93 47.8701 126.145 47.5238C125.378 47.1775 124.789 46.6996 124.379 46.0894C123.97 45.4795 123.765 44.7869 123.765 44.0122C123.765 42.7756 124.243 41.8031 125.198 41.0941C126.171 40.3853 127.665 40.0309 129.679 40.0309L132.853 40.0309C132.853 39.1899 132.589 38.5471 132.059 38.1019C131.53 37.6403 130.737 37.4095 129.679 37.4095C128.945 37.4095 128.219 37.5249 127.503 37.7557C126.803 37.9701 126.205 38.2668 125.71 38.646L124.277 35.9504C125.028 35.4395 125.923 35.0438 126.964 34.7635C128.023 34.4833 129.107 34.3431 130.216 34.3431ZM129.909 45.4465C130.592 45.4465 131.197 45.2981 131.726 45.0013C132.255 44.688 132.631 44.2349 132.853 43.6411L132.853 42.2814L130.114 42.2814C128.475 42.2814 127.656 42.8004 127.656 43.839C127.656 44.3337 127.852 44.7291 128.245 45.026C128.654 45.3064 129.209 45.4465 129.909 45.4465Z" fill="#81818B" fill-opacity="1.000000" fill-rule="nonzero"/>
		<path id="Vector" d="M148.064 47.2021C147.672 47.4825 147.185 47.6969 146.605 47.8453C146.042 47.9768 145.444 48.0428 144.813 48.0428C143.175 48.0428 141.903 47.6392 140.999 46.8315C140.111 46.0233 139.667 44.8363 139.667 43.2704L139.667 37.8052L137.543 37.8052L137.543 34.8376L139.667 34.8376L139.667 31.5981L143.661 31.5981L143.661 34.8376L147.091 34.8376L147.091 37.8052L143.661 37.8052L143.661 43.2209C143.661 43.7812 143.806 44.2183 144.096 44.5316C144.403 44.8281 144.83 44.9766 145.376 44.9766C146.008 44.9766 146.545 44.8116 146.989 44.4822L148.064 47.2021Z" fill="#81818B" fill-opacity="1.000000" fill-rule="nonzero"/>
		<path id="Vector" d="M162.902 34.541L162.902 47.8455L159.113 47.8455L159.113 46.2626C158.584 46.8394 157.952 47.2847 157.218 47.598C156.484 47.8949 155.691 48.043 154.837 48.043C153.028 48.043 151.595 47.5403 150.536 46.5347C149.478 45.5291 148.949 44.037 148.949 42.0587L148.949 34.541L152.943 34.541L152.943 41.4897C152.943 43.6329 153.873 44.7045 155.733 44.7045C156.689 44.7045 157.457 44.4081 158.038 43.8143C158.617 43.2045 158.908 42.3062 158.908 41.1189L158.908 34.541L162.902 34.541Z" fill="#81818B" fill-opacity="1.000000" fill-rule="nonzero"/>
		<path id="Vector" d="M169.136 36.2968C169.613 35.6538 170.254 35.1674 171.056 34.8376C171.875 34.5079 172.814 34.3431 173.872 34.3431L173.872 37.9041C173.428 37.8711 173.129 37.8546 172.976 37.8546C171.832 37.8546 170.936 38.168 170.288 38.7943C169.639 39.4043 169.315 40.3275 169.315 41.564L169.315 47.8453L165.321 47.8453L165.321 34.541L169.136 34.541L169.136 36.2968Z" fill="#81818B" fill-opacity="1.000000" fill-rule="nonzero"/>
		<path id="Vector" d="M188.333 41.2428C188.333 41.2917 188.307 41.6381 188.256 42.2814L177.837 42.2814C178.024 43.1056 178.468 43.7566 179.168 44.2349C179.868 44.7126 180.738 44.9518 181.779 44.9518C182.496 44.9518 183.127 44.8529 183.673 44.655C184.237 44.441 184.757 44.1111 185.235 43.6658L187.36 45.8915C186.063 47.3259 184.168 48.0428 181.676 48.0428C180.124 48.0428 178.75 47.7546 177.555 47.1775C176.36 46.5841 175.439 45.7678 174.79 44.7291C174.141 43.6906 173.818 42.5118 173.818 41.1931C173.818 39.8906 174.133 38.7202 174.765 37.6815C175.413 36.6265 176.292 35.8104 177.401 35.2334C178.528 34.6399 179.782 34.3431 181.165 34.3431C182.513 34.3431 183.733 34.6234 184.826 35.1838C185.918 35.7444 186.771 36.5522 187.386 37.6074C188.017 38.646 188.333 39.8577 188.333 41.2428ZM181.19 37.2611C180.286 37.2611 179.526 37.5084 178.912 38.0031C178.297 38.4977 177.922 39.1736 177.785 40.0309L184.57 40.0309C184.433 39.1899 184.057 38.5223 183.443 38.0277C182.829 37.5166 182.078 37.2611 181.19 37.2611Z" fill="#81818B" fill-opacity="1.000000" fill-rule="nonzero"/>
		<path id="Vector" d="M40.568 20.8945C39.9595 20.5546 39.2093 20.5546 38.6008 20.8945C34.2788 23.3096 31.3637 27.8282 31.3637 33.0068C31.3637 33.7449 31.423 34.4695 31.537 35.1766C28.5618 34.2007 25.3403 34.5558 22.709 36.0204C22.0999 36.3594 21.7248 36.9871 21.7254 37.666C21.7285 41.2485 23.655 44.7399 27.1053 46.6641C28.798 47.6083 30.6456 48.0569 32.468 48.0577C32.1907 48.8168 32.0398 49.6331 32.0398 50.4836C32.0398 54.5087 35.4175 57.771 39.5841 57.771C43.7509 57.771 47.1284 54.5087 47.1284 50.4836C47.1284 49.631 46.9769 48.813 46.6985 48.0527C48.4123 48.0004 50.1384 47.551 51.7279 46.6641C55.1785 44.7399 57.1048 41.2485 57.1074 37.6663C57.1085 36.9872 56.7331 36.3596 56.1241 36.0205C53.5967 34.6136 50.5242 34.2305 47.6491 35.0676C47.752 34.3951 47.8049 33.707 47.8049 33.0068C47.8049 27.8282 44.8901 23.3096 40.568 20.8945ZM35.2925 33.0068C35.2925 29.644 36.9781 26.6597 39.5844 24.8021C42.1907 26.6597 43.8763 29.644 43.8763 33.0068C43.8763 36.3696 42.1907 39.3539 39.5844 41.2114C36.9781 39.3539 35.2925 36.3696 35.2925 33.0068ZM47.3315 39.3087C49.1456 38.297 51.2418 38.1793 53.0728 38.8195C52.7315 40.6714 51.5776 42.3658 49.7636 43.3777C47.9496 44.3894 45.8535 44.507 44.0223 43.8671C44.3638 42.0149 45.5175 40.3204 47.3315 39.3087ZM25.7605 38.8193C27.5915 38.1792 29.6876 38.2969 31.5016 39.3086C33.3158 40.3203 34.4693 42.0149 34.8109 43.8666C32.9799 44.507 30.8838 44.3894 29.0697 43.3777C27.2557 42.3658 26.1021 40.6713 25.7605 38.8193ZM35.9686 50.4836C35.9686 48.5549 37.5873 46.9911 39.5841 46.9911C41.5809 46.9911 43.1998 48.5549 43.1998 50.4836C43.1998 52.4124 41.5809 53.9763 39.5841 53.9763C37.5873 53.9763 35.9686 52.4124 35.9686 50.4836Z" fill="#81818B" fill-opacity="1.000000" fill-rule="evenodd"/>
	</g>
</svg>
