<svg width="210.000000" height="78.750000" viewBox="0 0 210 78.75" fill="none" xmlns="http://www.w3.org/2000/svg" xmlns:xlink="http://www.w3.org/1999/xlink">
	<desc>
			Created with Pixso.
	</desc>
	<defs>
		<clipPath id="clip1_116">
			<rect id="62fbcc5bef501c294e129186_Sitemark%20Logo.svg" width="210.000000" height="78.750000" fill="white" fill-opacity="0"/>
		</clipPath>
	</defs>
	<g clip-path="url(#clip1_116)">
		<path id="Vector" d="M22.9939 45.1287L34.6535 40.0754L41.3645 43.8652L42.7202 56.2985L34.4501 56.2323L35.6703 47.5883L34.2467 46.7905L27.2645 52.1097L22.9939 45.1287Z" fill="#81818B" fill-opacity="1.000000" fill-rule="nonzero"/>
		<path id="Vector" d="M42.1106 43.3329L52.4146 50.7128L56.4816 43.5989L48.2114 40.3409L48.2114 38.7452L56.4816 35.4209L52.4146 28.3733L42.1106 35.7534L42.1106 43.3329Z" fill="#81818B" fill-opacity="1.000000" fill-rule="nonzero"/>
		<path id="Vector" d="M41.3645 35.1553L42.7202 22.7222L34.4501 22.8551L35.6703 31.4984L34.2467 32.2963L27.1967 26.9773L22.9939 33.892L34.6535 38.9451L41.3645 35.1553Z" fill="#81818B" fill-opacity="1.000000" fill-rule="nonzero"/>
		<path id="Vector" d="M84.0724 38.0201L84.0724 49.6683L88.5234 49.6683L88.5234 34.8239L82.0417 34.8239L82.0417 38.0201L84.0724 38.0201Z" fill="#81818B" fill-opacity="1.000000" fill-rule="nonzero"/>
		<path id="Vector" d="M83.9333 32.7382C84.3412 33.1534 84.9629 33.3611 85.7971 33.3611C86.6324 33.3611 87.244 33.1534 87.633 32.7382C88.0414 32.3046 88.2452 31.7628 88.2452 31.1129C88.2452 30.4446 88.0414 29.9028 87.633 29.4875C87.244 29.0542 86.6324 28.8374 85.7971 28.8374C84.9629 28.8374 84.3412 29.0542 83.9333 29.4875C83.5443 29.9028 83.3495 30.4446 83.3495 31.1129C83.3495 31.7628 83.5443 32.3046 83.9333 32.7382Z" fill="#81818B" fill-opacity="1.000000" fill-rule="nonzero"/>
		<path id="Vector" d="M68.5776 49.343C69.8387 49.9028 71.3869 50.183 73.2228 50.183C74.948 50.183 76.4311 49.9208 77.6743 49.3972C78.917 48.8738 79.8719 48.1421 80.5392 47.203C81.2259 46.2458 81.5687 45.1354 81.5687 43.8711C81.5687 42.6433 81.2448 41.6049 80.5954 40.756C79.9643 39.8893 79.0839 39.212 77.9525 38.7246C76.8212 38.2188 75.5134 37.9028 74.0297 37.7765L72.4721 37.6411C71.5449 37.5687 70.8771 37.3251 70.4692 36.9095C70.0607 36.4943 69.857 36.0066 69.857 35.4469C69.857 35.0133 69.9689 34.6162 70.1904 34.255C70.4135 33.8757 70.7469 33.5778 71.1921 33.361C71.6562 33.1444 72.2216 33.036 72.8894 33.036C73.594 33.036 74.1783 33.1624 74.6419 33.4153C74.7437 33.4688 74.8409 33.5259 74.9317 33.5865L74.9537 33.6016C74.9879 33.6245 75.0215 33.6482 75.054 33.6722C75.3359 33.8818 75.5601 34.1302 75.7271 34.4175C75.9675 34.8149 76.0888 35.2572 76.0888 35.7449L80.5392 35.7449C80.5392 34.4445 80.2331 33.3159 79.6215 32.3589C79.0099 31.3837 78.1289 30.6343 76.9792 30.1104C75.8473 29.5686 74.4844 29.2977 72.8894 29.2977C71.3685 29.2977 70.0518 29.5508 68.9388 30.0563C67.8263 30.5439 66.9548 31.2482 66.3243 32.1691C65.7116 33.0901 65.4055 34.1827 65.4055 35.4469C65.4055 37.1986 66.0088 38.6071 67.2142 39.6727C68.4196 40.7382 70.0334 41.3521 72.0547 41.5145L73.5851 41.65C74.8272 41.7584 75.7271 42.0022 76.2836 42.3813C76.8395 42.7426 77.1178 43.2391 77.1178 43.8711C77.1178 44.1617 77.069 44.4341 76.9713 44.6886C76.8989 44.8777 76.7991 45.0566 76.6731 45.2257C76.3754 45.6047 75.9402 45.9027 75.3653 46.1198C74.7905 46.3363 74.0764 46.4446 73.2228 46.4446C72.2773 46.4446 71.5076 46.3184 70.9144 46.0652C70.3206 45.7944 69.8759 45.4423 69.5782 45.0092C69.3005 44.5754 69.1619 44.1061 69.1619 43.6003L64.7383 43.6003C64.7383 44.8826 65.0627 46.0204 65.7116 47.0133C66.3611 47.9886 67.316 48.7655 68.5776 49.343Z" fill="#81818B" fill-opacity="1.000000" fill-rule="nonzero"/>
		<path id="Vector" d="M98.4548 49.8577C96.915 49.8577 95.6729 49.6774 94.7268 49.3158C93.7808 48.9369 93.0856 48.3136 92.6404 47.4469C92.2142 46.5619 92.0005 45.3704 92.0005 43.8712L92.0005 37.9932L89.6915 37.9932L89.6915 34.8239L92.0005 34.8239L92.0005 30.8149L96.1453 30.8149L96.1453 34.8239L100.597 34.8239L100.597 37.9932L96.1453 37.9932L96.1453 44.0339C96.1453 44.7382 96.3312 45.2799 96.7018 45.6589C97.0914 46.0204 97.6384 46.2008 98.3435 46.2008L100.597 46.2008L100.597 49.8577L98.4548 49.8577Z" fill="#81818B" fill-opacity="1.000000" fill-rule="nonzero"/>
		<path id="Vector" d="M105.956 49.5328C106.957 49.9659 108.107 50.183 109.405 50.183C110.685 50.183 111.817 49.9659 112.799 49.5328C113.782 49.0992 114.599 48.4943 115.247 47.718C115.896 46.9412 116.333 46.0562 116.555 45.0632L112.466 45.0632C112.28 45.5148 111.928 45.8938 111.409 46.2007C110.889 46.5077 110.221 46.6616 109.405 46.6616C108.9 46.6616 108.448 46.6029 108.05 46.4866C107.747 46.3981 107.476 46.2759 107.235 46.1198C106.679 45.7587 106.271 45.2526 106.011 44.6027C105.939 44.4175 105.878 44.2239 105.826 44.0222C105.773 43.8177 105.73 43.6051 105.698 43.3838L116.833 43.3838L116.833 41.9209C116.833 40.5665 116.536 39.3204 115.943 38.1829C115.349 37.0269 114.487 36.0969 113.356 35.3926C112.243 34.6703 110.871 34.3091 109.238 34.3091C107.996 34.3091 106.883 34.5259 105.9 34.9594C104.936 35.3745 104.129 35.9434 103.48 36.6658C102.831 37.3881 102.33 38.21 101.977 39.131C101.644 40.0337 101.477 40.9818 101.477 41.975L101.477 42.5167C101.477 43.474 101.644 44.413 101.977 45.334C102.33 46.2369 102.831 47.0585 103.48 47.799C104.147 48.5216 104.972 49.0992 105.956 49.5328ZM105.775 40.7052C105.787 40.6478 105.8 40.5914 105.814 40.5358C105.853 40.3827 105.897 40.2358 105.948 40.0956C105.977 40.0157 106.007 39.9379 106.039 39.8622C106.317 39.194 106.726 38.6885 107.263 38.3453C107.464 38.217 107.682 38.1128 107.916 38.0326C108.31 37.8979 108.751 37.8306 109.238 37.8306C109.999 37.8306 110.629 38.0022 111.13 38.3453C111.649 38.6703 112.039 39.1488 112.299 39.7809C112.32 39.8319 112.34 39.8838 112.359 39.9364C112.389 40.0201 112.418 40.1061 112.445 40.1942C112.484 40.3253 112.518 40.4609 112.548 40.6012C112.57 40.7045 112.589 40.8104 112.606 40.9187L105.732 40.9187C105.745 40.8463 105.759 40.7753 105.775 40.7052Z" fill="#81818B" fill-opacity="1.000000" fill-rule="evenodd"/>
		<path id="Vector" d="M118.67 49.6683L118.67 34.8239L122.203 34.8239L122.203 38.5626C122.251 38.3403 122.306 38.127 122.366 37.9225C122.419 37.7501 122.475 37.5839 122.537 37.4243C122.926 36.4128 123.51 35.6545 124.289 35.1488C125.068 34.6251 126.023 34.3634 127.155 34.3634L127.349 34.3634C128.5 34.3634 129.454 34.6251 130.215 35.1488C130.994 35.6545 131.578 36.4128 131.967 37.4243L131.998 37.5006L132.024 37.5704C132.042 37.5211 132.06 37.4724 132.078 37.4243C132.486 36.4128 133.08 35.6545 133.859 35.1488C134.638 34.6251 135.593 34.3634 136.725 34.3634L136.919 34.3634C138.069 34.3634 139.033 34.6251 139.812 35.1488C140.61 35.6545 141.213 36.4128 141.62 37.4243C142.028 38.4357 142.233 39.6997 142.233 41.2167L142.233 49.6683L137.781 49.6683L137.781 40.9728C137.781 40.1602 137.559 39.5011 137.114 38.9955C136.687 38.4897 136.075 38.2369 135.278 38.2369C134.48 38.2369 133.85 38.4988 133.386 39.0225C132.923 39.5281 132.691 40.2053 132.691 41.0542L132.691 49.6683L128.212 49.6683L128.212 40.9728C128.212 40.1602 127.989 39.5011 127.544 38.9955C127.118 38.4897 126.514 38.2369 125.736 38.2369C124.92 38.2369 124.28 38.4988 123.817 39.0225C123.353 39.5281 123.121 40.2053 123.121 41.0542L123.121 49.6683L118.67 49.6683Z" fill="#81818B" fill-opacity="1.000000" fill-rule="nonzero"/>
		<path id="Vector" d="M154.123 46.808L154.123 49.6685L157.655 49.6685L157.655 40.5667C157.655 39.1941 157.377 38.0746 156.821 37.2076C156.264 36.3228 155.449 35.6636 154.373 35.2302C153.316 34.7969 152.008 34.5801 150.45 34.5801C150.113 34.5801 149.76 34.5835 149.393 34.5908C149.176 34.5951 148.953 34.6006 148.726 34.6072C148.114 34.6252 147.52 34.6523 146.945 34.6885L146.506 34.7173C146.28 34.7325 146.069 34.7476 145.869 34.7629C145.719 34.7742 145.577 34.7855 145.443 34.7969L145.443 38.4539C146.018 38.4176 146.658 38.3815 147.363 38.3455C147.56 38.3354 147.755 38.326 147.949 38.3173C148.229 38.3047 148.505 38.2937 148.779 38.2842C148.995 38.2765 149.209 38.2698 149.421 38.264C150.089 38.246 150.627 38.2371 151.035 38.2371C151.85 38.2371 152.444 38.4265 152.815 38.8059C153.186 39.1851 153.371 39.7539 153.371 40.5126L153.371 40.5667L150.617 40.5667C149.264 40.5667 148.067 40.7383 147.028 41.0814C145.99 41.4064 145.183 41.921 144.609 42.6252C144.033 43.3116 143.746 44.1965 143.746 45.2799C143.746 46.2733 143.978 47.131 144.441 47.8536C144.905 48.5575 145.545 49.0994 146.361 49.4783C147.196 49.8578 148.16 50.0475 149.254 50.0475C150.311 50.0475 151.202 49.8578 151.925 49.4783C152.667 49.0994 153.242 48.5575 153.65 47.8536C153.722 47.7346 153.788 47.6116 153.851 47.4836C153.939 47.3029 154.018 47.1127 154.087 46.9131L154.123 46.808ZM153.371 44.1694L153.371 42.9775L150.589 42.9775C149.81 42.9775 149.208 43.167 148.781 43.5464C148.373 43.9076 148.169 44.4042 148.169 45.0361C148.169 45.3336 148.22 45.6039 148.321 45.8478C148.424 46.092 148.577 46.3091 148.781 46.4988C149.208 46.8604 149.81 47.0406 150.589 47.0406C150.737 47.0406 150.881 47.0334 151.019 47.0197C151.132 47.0079 151.242 46.9915 151.349 46.9703C151.552 46.9302 151.745 46.8719 151.925 46.7968C152.333 46.6165 152.667 46.3185 152.926 45.9028C153.186 45.4875 153.335 44.9095 153.371 44.1694Z" fill="#81818B" fill-opacity="1.000000" fill-rule="evenodd"/>
		<path id="Vector" d="M160.319 49.6685L160.319 34.824L163.852 34.824L163.852 39.7236C164.022 38.3248 164.448 37.197 165.132 36.3408C166.06 35.2032 167.394 34.6344 169.138 34.6344L169.722 34.6344L169.722 38.3724L168.609 38.3724C167.386 38.3724 166.44 38.6974 165.772 39.3475C165.104 39.9797 164.77 40.9008 164.77 42.1105L164.77 49.6685L160.319 49.6685Z" fill="#81818B" fill-opacity="1.000000" fill-rule="nonzero"/>
		<path id="Vector" d="M175.367 42.7336L176.841 42.7336L181.654 49.6685L186.661 49.6685L180.559 41.1517L185.576 34.824L180.903 34.824L175.367 41.8822L175.367 29.8939L170.916 29.8939L170.916 49.6685L175.367 49.6685L175.367 42.7336Z" fill="#81818B" fill-opacity="1.000000" fill-rule="nonzero"/>
	</g>
</svg>
