<svg width="210.000000" height="78.750000" viewBox="0 0 210 78.75" fill="none" xmlns="http://www.w3.org/2000/svg" xmlns:xlink="http://www.w3.org/1999/xlink">
	<desc>
			Created with Pixso.
	</desc>
	<defs>
		<clipPath id="clip1_154">
			<rect id="62fbcc4358c3427af911102e_Waveless%20Logo.svg" width="210.000000" height="78.750000" fill="white" fill-opacity="0"/>
		</clipPath>
	</defs>
	<g clip-path="url(#clip1_154)">
		<path id="Vector" d="M29.4154 30.9705C32.1558 27.4683 36.5439 25.1993 41.4899 25.1993C46.4648 25.1993 50.8754 27.495 53.6124 31.0323C53.496 31.1462 53.3899 31.2642 53.2938 31.382C52.7925 31.9988 52.4152 32.7933 52.113 33.6003C51.5044 35.223 51.0403 37.3429 50.6105 39.3279L50.5723 39.5063C50.1434 41.4877 49.7449 43.3303 49.2629 44.6981C49.0464 45.3126 48.8411 45.7472 48.6589 46.0254C48.469 45.7449 48.2534 45.3052 48.0253 44.6819C47.5098 43.2747 47.0763 41.3607 46.6167 39.317L46.6018 39.2501L46.6018 39.25C46.1602 37.2871 45.6918 35.2042 45.1077 33.61C44.8142 32.8091 44.4541 32.0225 43.9833 31.4113C43.5211 30.8115 42.7517 30.1346 41.6266 30.1346C40.5084 30.1346 39.7356 30.8042 39.2667 31.3972C38.7867 32.0045 38.4125 32.7878 38.1042 33.5891C37.4834 35.2026 36.9758 37.3132 36.5034 39.3009L36.4546 39.5063C35.9868 41.4753 35.5496 43.3162 35.0532 44.6866C34.8638 45.2101 34.6849 45.6083 34.5231 45.8927C34.3649 45.6096 34.1906 45.214 34.0062 44.6951C33.53 43.3538 33.1128 41.5645 32.6648 39.6426L32.5864 39.3063C32.1222 37.3174 31.6185 35.2029 30.9889 33.5844C30.676 32.7802 30.2933 31.9928 29.7982 31.3828C29.686 31.2446 29.5586 31.1045 29.4154 30.9705ZM27.7568 33.6597C27.8873 33.9045 28.0254 34.208 28.1682 34.575C28.7133 35.976 29.1749 37.8877 29.6505 39.9249L29.743 40.3219C30.1759 42.1808 30.6263 44.1144 31.1567 45.6083C31.4388 46.4028 31.7797 47.181 32.2178 47.7858C32.6322 48.3578 33.3756 49.0967 34.5187 49.0967C35.6584 49.0967 36.4036 48.3615 36.8208 47.792C37.2627 47.1886 37.609 46.4113 37.8969 45.6162C38.4486 44.0928 38.9185 42.1138 39.368 40.2198L39.368 40.2197L39.4368 39.9303C39.9213 37.8918 40.3876 35.9763 40.9286 34.5702C41.1793 33.9187 41.4139 33.4648 41.6182 33.1833C41.8119 33.4625 42.033 33.9091 42.2677 34.5493C42.7832 35.9565 43.2163 37.8705 43.6759 39.9142L43.691 39.9811C44.1326 41.9441 44.601 44.027 45.1851 45.6211C45.4785 46.4222 45.8386 47.2089 46.3096 47.8198C46.7717 48.4198 47.541 49.0967 48.666 49.0967C49.797 49.0967 50.5635 48.4136 51.0201 47.8083C51.484 47.1943 51.8328 46.405 52.1144 45.6051C52.6559 44.0687 53.0864 42.0752 53.4969 40.1787L53.4969 40.1787L53.5558 39.9034C53.9978 37.8622 54.422 35.9558 54.9459 34.559C55.0593 34.2551 55.1711 33.9961 55.2778 33.7784C56.0804 35.5265 56.5256 37.4567 56.5256 39.4856C56.5256 47.3756 49.7942 53.7721 41.4899 53.7721C33.1857 53.7721 26.4539 47.3756 26.4539 39.4856C26.4539 37.4106 26.9194 35.4388 27.7568 33.6597ZM41.4899 22.342C31.5249 22.342 23.4467 30.0175 23.4467 39.4856C23.4467 48.9537 31.5249 56.6292 41.4899 56.6292C51.4551 56.6292 59.533 48.9537 59.533 39.4856C59.533 30.0175 51.4551 22.342 41.4899 22.342ZM41.8336 32.9442C41.8336 32.9446 41.8301 32.9471 41.8231 32.951C41.8301 32.9458 41.8336 32.9438 41.8336 32.9442ZM41.418 32.946C41.411 32.942 41.4076 32.9393 41.4076 32.939C41.4076 32.9385 41.411 32.9406 41.418 32.946ZM48.4374 46.2966C48.4374 46.2966 48.4406 46.2936 48.4471 46.2896C48.4406 46.2948 48.4374 46.297 48.4374 46.2966ZM48.8745 46.2852C48.8816 46.2892 48.8853 46.2917 48.8853 46.2922C48.8853 46.2926 48.8816 46.2904 48.8745 46.2852ZM34.2104 46.3223C34.2104 46.3218 34.2147 46.3179 34.2234 46.3121C34.2148 46.3196 34.2104 46.3228 34.2104 46.3223ZM34.8195 46.3147C34.8281 46.3206 34.8324 46.3245 34.8324 46.325C34.8323 46.3254 34.828 46.3228 34.8195 46.3147Z" fill="#81818B" fill-opacity="1.000000" fill-rule="evenodd"/>
		<path id="Vector" d="M69.4958 49.635L65.1205 35.4144L68.953 35.4144L71.5481 45.6498L74.5652 35.4144L78.8502 35.4144L81.8679 45.6498L84.4929 35.4144L88.3254 35.4144L83.9197 49.635L79.9066 49.635L76.7078 38.9983L73.5095 49.635L69.4958 49.635Z" fill="#81818B" fill-opacity="1.000000" fill-rule="nonzero"/>
		<path id="Vector" d="M93.9487 49.9792C92.6614 49.9792 91.6051 49.7877 90.7803 49.4054C89.9561 49.0042 89.3423 48.4786 88.9397 47.8287C88.5375 47.1788 88.3364 46.462 88.3364 45.6786C88.3364 44.3597 88.8793 43.2893 89.9655 42.4674C91.0518 41.6455 92.6819 41.2346 94.8542 41.2346L98.6564 41.2346L98.6564 40.8905C98.6564 39.9158 98.3645 39.199 97.7811 38.7402C97.1979 38.2815 96.4734 38.0521 95.6088 38.0521C94.8239 38.0521 94.1398 38.2338 93.5565 38.5969C92.9733 38.9409 92.611 39.457 92.4703 40.1451L88.6981 40.1451C88.799 39.113 89.1613 38.2146 89.7844 37.4501C90.4286 36.6855 91.2533 36.1025 92.2587 35.7012C93.2651 35.2806 94.3912 35.0704 95.6387 35.0704C97.7712 35.0704 99.4507 35.5769 100.678 36.59C101.905 37.603 102.519 39.0365 102.519 40.8905L102.519 49.6351L99.2291 49.6351L98.8674 47.3416C98.4248 48.1061 97.8011 48.7366 96.9968 49.2339C96.2119 49.7306 95.196 49.9792 93.9487 49.9792ZM94.8239 47.1119C95.9305 47.1119 96.7853 46.7678 97.3884 46.0798C98.0122 45.3918 98.4049 44.5411 98.566 43.5282L95.2764 43.5282C94.2506 43.5282 93.5166 43.7098 93.0735 44.0729C92.6315 44.4167 92.4099 44.8473 92.4099 45.3632C92.4099 45.9175 92.6315 46.3475 93.0735 46.6532C93.5166 46.9589 94.0994 47.1119 94.8239 47.1119Z" fill="#81818B" fill-opacity="1.000000" fill-rule="nonzero"/>
		<path id="Vector" d="M108.599 49.635L103.107 35.4144L107.15 35.4144L110.953 46.166L114.755 35.4144L118.798 35.4144L113.276 49.635L108.599 49.635Z" fill="#81818B" fill-opacity="1.000000" fill-rule="nonzero"/>
		<path id="Vector" d="M126.562 49.9792C125.054 49.9792 123.716 49.6731 122.549 49.0616C121.383 48.4498 120.468 47.5898 119.803 46.4811C119.139 45.3728 118.808 44.092 118.808 42.6394C118.808 41.1677 119.13 39.8584 119.773 38.7115C120.437 37.5648 121.342 36.676 122.489 36.0452C123.655 35.3954 125.023 35.0704 126.593 35.0704C128.061 35.0704 129.359 35.3762 130.486 35.9879C131.612 36.5995 132.487 37.4406 133.111 38.5109C133.754 39.5621 134.077 40.7375 134.077 42.0374C134.077 42.2476 134.066 42.4674 134.046 42.6968C134.046 42.9261 134.036 43.165 134.016 43.4136L122.64 43.4136C122.72 44.5221 123.123 45.3918 123.847 46.0228C124.591 46.6532 125.486 46.9686 126.533 46.9686C127.317 46.9686 127.971 46.8063 128.494 46.4811C129.037 46.1373 129.439 45.6976 129.701 45.1622L133.624 45.1622C133.342 46.0608 132.869 46.8828 132.205 47.6283C131.561 48.3542 130.757 48.9276 129.791 49.3484C128.846 49.7687 127.769 49.9792 126.562 49.9792ZM126.593 38.0521C125.648 38.0521 124.812 38.3102 124.088 38.8262C123.364 39.3232 122.901 40.0878 122.7 41.1199L130.153 41.1199C130.093 40.1833 129.731 39.4379 129.067 38.8835C128.403 38.3293 127.579 38.0521 126.593 38.0521Z" fill="#81818B" fill-opacity="1.000000" fill-rule="nonzero"/>
		<path id="Vector" d="M136.118 49.635L136.118 28.9922L139.98 28.9922L139.98 49.635L136.118 49.635Z" fill="#81818B" fill-opacity="1.000000" fill-rule="nonzero"/>
		<path id="Vector" d="M149.991 49.9792C148.483 49.9792 147.145 49.6731 145.978 49.0616C144.812 48.4498 143.897 47.5898 143.233 46.4811C142.568 45.3728 142.237 44.092 142.237 42.6394C142.237 41.1677 142.559 39.8584 143.202 38.7115C143.866 37.5648 144.771 36.676 145.918 36.0452C147.085 35.3954 148.453 35.0704 150.022 35.0704C151.49 35.0704 152.788 35.3762 153.915 35.9879C155.041 36.5995 155.917 37.4406 156.54 38.5109C157.183 39.5621 157.506 40.7375 157.506 42.0374C157.506 42.2476 157.495 42.4674 157.475 42.6968C157.475 42.9261 157.465 43.165 157.445 43.4136L146.069 43.4136C146.149 44.5221 146.552 45.3918 147.276 46.0228C148.02 46.6532 148.916 46.9686 149.962 46.9686C150.746 46.9686 151.4 46.8063 151.923 46.4811C152.466 46.1373 152.868 45.6976 153.13 45.1622L157.053 45.1622C156.771 46.0608 156.298 46.8828 155.635 47.6283C154.99 48.3542 154.186 48.9276 153.22 49.3484C152.275 49.7687 151.199 49.9792 149.991 49.9792ZM150.022 38.0521C149.077 38.0521 148.242 38.3102 147.517 38.8262C146.793 39.3232 146.331 40.0878 146.129 41.1199L153.582 41.1199C153.522 40.1833 153.16 39.4379 152.496 38.8835C151.832 38.3293 151.008 38.0521 150.022 38.0521Z" fill="#81818B" fill-opacity="1.000000" fill-rule="nonzero"/>
		<path id="Vector" d="M165.733 49.9792C164.405 49.9792 163.238 49.7784 162.233 49.3772C161.226 48.9564 160.422 48.3831 159.818 47.6566C159.215 46.9307 158.853 46.0896 158.732 45.1339L162.625 45.1339C162.745 45.6879 163.068 46.1661 163.591 46.5674C164.133 46.9496 164.827 47.1407 165.672 47.1407C166.517 47.1407 167.131 46.9784 167.513 46.6532C167.916 46.3285 168.117 45.9556 168.117 45.5352C168.117 44.9233 167.835 44.5123 167.272 44.3022C166.708 44.0729 165.924 43.8531 164.918 43.6429C164.275 43.509 163.621 43.3467 162.957 43.1555C162.293 42.9644 161.68 42.7255 161.116 42.4387C160.573 42.1329 160.13 41.7506 159.788 41.2919C159.446 40.8141 159.276 40.2311 159.276 39.543C159.276 38.2815 159.798 37.2207 160.845 36.3606C161.911 35.5005 163.399 35.0704 165.31 35.0704C167.081 35.0704 168.489 35.4623 169.535 36.246C170.601 37.0295 171.234 38.1095 171.436 39.4857L167.785 39.4857C167.563 38.4344 166.729 37.9088 165.281 37.9088C164.556 37.9088 163.993 38.0426 163.591 38.3102C163.208 38.5778 163.017 38.9122 163.017 39.3136C163.017 39.7341 163.309 40.0686 163.892 40.3171C164.476 40.5657 165.25 40.7949 166.216 41.0052C167.261 41.2346 168.217 41.4926 169.082 41.7793C169.967 42.0469 170.671 42.4579 171.195 43.0122C171.718 43.5472 171.979 44.3213 171.979 45.3344C172 46.2139 171.757 47.0067 171.255 47.7141C170.752 48.4211 170.028 48.9755 169.082 49.3772C168.137 49.7784 167.02 49.9792 165.733 49.9792Z" fill="#81818B" fill-opacity="1.000000" fill-rule="nonzero"/>
		<path id="Vector" d="M180.38 49.9792C179.052 49.9792 177.885 49.7784 176.879 49.3772C175.873 48.9564 175.069 48.3831 174.465 47.6566C173.862 46.9307 173.499 46.0896 173.379 45.1339L177.271 45.1339C177.392 45.6879 177.714 46.1661 178.237 46.5674C178.78 46.9496 179.474 47.1407 180.319 47.1407C181.164 47.1407 181.778 46.9784 182.16 46.6532C182.562 46.3285 182.764 45.9556 182.764 45.5352C182.764 44.9233 182.482 44.5123 181.918 44.3022C181.355 44.0729 180.571 43.8531 179.565 43.6429C178.921 43.509 178.267 43.3467 177.603 43.1555C176.94 42.9644 176.326 42.7255 175.763 42.4387C175.22 42.1329 174.777 41.7506 174.435 41.2919C174.093 40.8141 173.922 40.2311 173.922 39.543C173.922 38.2815 174.445 37.2207 175.491 36.3606C176.557 35.5005 178.046 35.0704 179.957 35.0704C181.727 35.0704 183.135 35.4623 184.182 36.246C185.247 37.0295 185.881 38.1095 186.083 39.4857L182.431 39.4857C182.21 38.4344 181.375 37.9088 179.927 37.9088C179.202 37.9088 178.639 38.0426 178.237 38.3102C177.855 38.5778 177.664 38.9122 177.664 39.3136C177.664 39.7341 177.955 40.0686 178.539 40.3171C179.122 40.5657 179.896 40.7949 180.862 41.0052C181.908 41.2346 182.864 41.4926 183.729 41.7793C184.614 42.0469 185.318 42.4579 185.841 43.0122C186.364 43.5472 186.626 44.3213 186.626 45.3344C186.646 46.2139 186.404 47.0067 185.901 47.7141C185.398 48.4211 184.675 48.9755 183.729 49.3772C182.783 49.7784 181.667 49.9792 180.38 49.9792Z" fill="#81818B" fill-opacity="1.000000" fill-rule="nonzero"/>
	</g>
</svg>
